<svg xmlns="http://www.w3.org/2000/svg" xml:space="preserve" id="图层_1" x="0" y="0" style="enable-background:new 0 0 767.4 114" version="1.1" viewBox="0 0 767.4 114"><style>.st0{fill:#e60012}</style><g id="图层_2_1_"><g id="图层_1-2"><path d="M755.4 114h-41.9A47.5 47.5 0 0 1 666 66.5V48.2A47.5 47.5 0 0 1 713.5.7h41.9a12 12 0 0 1 0 23.9h-41.9a23.6 23.6 0 0 0-23.6 23.6v18.3a23.6 23.6 0 0 0 23.6 23.6h41.9a12 12 0 0 1 0 23.9" class="st0"/><path d="M755.4 68.3h-67.3c-6.6 0-11.9-5.3-11.9-11.9s5.3-11.9 11.9-11.9h67.3c6.6 0 11.9 5.3 11.9 11.9.1 6.5-5.3 11.9-11.9 11.9M462.7.5l-62.5.1v112.7h62.5A47.4 47.4 0 0 0 510 66V47.8A47.3 47.3 0 0 0 462.7.5M486.3 66c0 13-10.5 23.5-23.5 23.5h-38.6V24.3h38.6c13 0 23.5 10.5 23.5 23.5V66zM52.5 57.4c.1 6.5 5.3 11.7 11.8 11.7h26.9v20.3H47.1A23.4 23.4 0 0 1 23.7 66V47.8a23.4 23.4 0 0 1 23.4-23.4h55.4a11.8 11.8 0 0 0 0-23.7H47.1C21.1.7 0 21.8 0 47.8V66c0 26 21.1 47.1 47.1 47.1h67.7V55.9c0-5.8-4.7-10.5-10.5-10.5h-40c-6.5 0-11.8 5.3-11.8 11.8v.2M212.2 113.2h-45.8a37.6 37.6 0 0 1-37.6-37.6V38.2A37.6 37.6 0 0 1 166.4.6h45.8a37.6 37.6 0 0 1 37.6 37.6v37.4a37.6 37.6 0 0 1-37.6 37.6m-45.8-90.9c-8.8 0-15.9 7.1-15.9 15.9v37.4c0 8.8 7.1 15.9 15.9 15.9h45.8c8.8 0 15.9-7.1 15.9-15.9V38.2c0-8.8-7.1-15.9-15.9-15.9h-45.8zM346.1 113.2h-45.8a37.6 37.6 0 0 1-37.6-37.6V38.2A37.6 37.6 0 0 1 300.3.6h45.8a37.6 37.6 0 0 1 37.6 37.6v37.4a37.6 37.6 0 0 1-37.6 37.6m-45.8-90.9c-8.8 0-15.9 7.1-15.9 15.9v37.4c0 8.8 7.1 15.9 15.9 15.9h45.8c8.8 0 15.9-7.1 15.9-15.9V38.2c0-8.8-7.1-15.9-15.9-15.9h-45.8zM538.9 0h-.5a11 11 0 0 0-11 11v91.4a11 11 0 0 0 11 11h.5a11 11 0 0 0 11-11V11c0-6.1-5-11-11-11" class="st0"/><path d="M583 56.3a11.2 11.2 0 0 0-15.9.4l-36.5 37.9a11.2 11.2 0 0 0 8.5 19l1.3-.1c2.5-.3 4.8-1.5 6.6-3.4l36.5-37.9c4.2-4.5 4-11.6-.5-15.9M635.4 0h.4a11 11 0 0 1 11 11v91.4a11 11 0 0 1-11 11h-.4a11 11 0 0 1-11-11V11c0-6.1 5-11 11-11" class="st0"/><path d="M591.3 56.3a11.2 11.2 0 0 1 15.9.4l36.5 37.9a11.2 11.2 0 0 1-8.5 19l-1.3-.1c-2.5-.3-4.8-1.5-6.6-3.4l-36.5-37.9c-4.2-4.5-4-11.6.5-15.9" class="st0"/></g></g></svg>