<?xml version="1.0" encoding="utf-8"?>
<svg version="1.1" id="layer" xmlns="http://www.w3.org/2000/svg" xmlns:xlink="http://www.w3.org/1999/xlink" x="0px" y="0px"
	 viewBox="-153 -46 652 652" style="enable-background:new -153 -46 652 652;" xml:space="preserve">
<style type="text/css">
	.st0{fill:#C00630;}
</style>
<path class="st0" d="M429.1,259.6l-8,50.7h-23l7.3-46c0.1-1.6,0.3-3.1,0.3-4.5c0-5.4-3.5-8-9.2-8c-2.9,0-5.3,0.4-8.7,1.5l-1.6,0.5
	l-9,56.5h-23l10.1-64l23.6-7.8l-1,6.1l5-2.4c10.1-4.9,13.7-5.9,19.5-5.9c8.3,0,12.3,1.6,15.4,5.7l1.4,1.8l2-0.9
	c10.7-4.6,18.4-6.9,23.6-6.9c12.7,0,19.3,6.2,19.3,17.4c0,3.6-0.3,7.1-0.9,10.9l-7.4,46.1h-23l7.3-46c0.3-1.7,0.5-3.4,0.5-4.6
	c0-5.3-3.4-8.1-9.2-8.1c-2.9,0-5.5,0.5-9,1.8l-1.9,0.7v2.1L429.1,259.6z M302.8,281.3c0,8.7,3.5,14.1,10.9,14.1
	c2.2,0,4.7-0.5,7.1-1.4l1.6-0.6l6.8-43.5l-3.1-0.2c-0.5,0-1,0-1.6,0C310.8,249.7,302.8,262.6,302.8,281.3 M279.6,283.6
	c0-27.4,16.9-47.2,39.4-47.2c5.5,0,11.2,1.1,17.5,3.4l0.8,0.3l16.7-3.3l-11.6,73.6h-22l1.2-7.4l-5.2,3c-7.8,4.5-11.3,5.6-15.8,5.6
	C287.4,311.5,279.6,301.9,279.6,283.6 M245.8,246.5c-8.4,0-13.3,7.1-15.4,19.2l-0.6,3.4l3.5-0.1c13.2-0.4,20.4-5,20.4-15.1
	C253.6,249.2,250.6,246.5,245.8,246.5 M238.3,311.5c-21.8,0-33-10.1-33-29.3c0-27.6,17.9-45.9,45-45.9c16.1,0,23.9,6.3,23.9,17.5
	c0,16.3-13.2,25.5-40.2,25.5h-5.5l-0.1,2.7c0,0.6,0,1.1,0,1.6c0,10.3,5.4,14.7,16.9,14.7c6.4,0,9.6-0.3,19.5-2l-1.7,10.7
	C252.7,310.4,246.5,311.5,238.3,311.5 M166.1,222.6l24.3-8l-3.9,23.9h18.7l-1.9,12l-18.6,0l-5.2,33.6c-0.3,1.5-0.4,3.2-0.4,4.3
	c0,5.6,3.5,8.3,9.4,8.3c2.4,0,5.2-0.3,7.7-0.8l-1.8,11.1c-8.8,3.2-14.1,4.4-19.6,4.4c-13.9,0-19.7-5-19.7-15.6
	c0-2.1,0.3-5.7,0.9-8.8l5.7-36.5l-7.7,0l1.9-12h7.7L166.1,222.6z M115.5,246.5c-8.4,0-13.4,7.1-15.4,19.2l-0.6,3.4l3.5-0.1
	c13.2-0.4,20.4-5,20.4-15.1C123.3,249.2,120.3,246.5,115.5,246.5 M108.1,311.5c-21.8,0-33-10.1-33-29.3c0-27.6,17.9-45.9,45.1-45.9
	c16.1,0,23.9,6.3,23.9,17.5c0,16.3-13.1,25.5-40.2,25.5h-5.5l-0.1,2.7c0,0.6,0,1.1,0,1.6c0,10.3,5.4,14.7,16.9,14.7
	c6.4,0,9.6-0.3,19.5-2l-1.7,10.7C122.4,310.4,116.2,311.5,108.1,311.5 M17.2,281.6c0,8.7,3.8,14.3,11.2,14.3c2.2,0,4.8-0.5,7.6-1.5
	l1.6-0.6l7-43.7l-3.2-0.1c-0.4,0-0.9,0-1.7,0C25.5,249.8,17.2,262.8,17.2,281.6 M-6.1,284.2c0-27.7,17.2-47.7,40.2-47.7
	c5,0,9.4,0.8,17.6,3.3l0.6,0.2l17-2.7l-12.2,77.5C54,335,43.4,343.2,19.2,343.2c-3.5,0-11.2-1.2-18.1-2.4c-3.1-0.5-6.6-1.2-9.6-1.8
	l14.7-10.4c2.4,0.2,4.7,0.3,7.3,0.3c14.5,0,19.1-3.9,21.4-17.8l1.1-7.8l-4.9,2.6c-9.1,4.8-12.6,6-16.5,6
	C1.9,311.9-6.1,302-6.1,284.2 M-56.9,244.6l5-2.4c9.7-4.7,13.8-5.9,18.7-5.9c12,0,18.5,6.3,18.5,17.2c0,3.6-0.3,7.1-0.9,11
	l-7.2,45.8h-23l7.2-46c0.3-1.7,0.5-3.2,0.5-4.6c0-5.4-3.5-8-9.2-8c-2.9,0-5.3,0.4-8.7,1.5l-1.6,0.5l-9,56.5h-23l10.1-64l23.7-7.8
	L-56.9,244.6z M-103.3,310.3h-23.6l13.9-87.5l24.9-8.2L-103.3,310.3z"/>
</svg>
