<?xml version="1.0" encoding="utf-8"?>
<!-- Generator: Adobe Illustrator 22.0.1, SVG Export Plug-In . SVG Version: 6.00 Build 0)  -->
<svg version="1.1" id="Capa_1" xmlns="http://www.w3.org/2000/svg" xmlns:xlink="http://www.w3.org/1999/xlink" x="0px" y="0px"
	 viewBox="0 0 100 50" style="enable-background:new 0 0 100 50;" xml:space="preserve">
<style type="text/css">
	.st0{fill:#D41317;}
</style>
<path class="st0" d="M47.4,20H51v12.1h-3.6V20z M90.8,32.3c-1.9,0-3.3-0.5-4.3-1.7c-1.1-1.4-1-2.9-1-4.6l0-6h3.6v9.3h7.3V20h3.6l0,6
	c0,1.7,0.1,3.1-1,4.6c-1,1.2-2.4,1.7-4.3,1.7H90.8z M73.2,19.9c0.7-0.3,4.6-0.4,7.3-0.1c1.5,0.2,3.5,0.8,3.5,2.7h-9.4v9.7H71v-8.4
	c0-1.1,0.3-1.9,0.5-2.3C71.8,20.8,72.5,20.2,73.2,19.9 M57.5,22.4v6.9h11.2c0,2-1.5,2.4-3,2.7c-1.3,0.3-3.5,0.3-5.5,0.2l-1.6,0
	c-1.9,0-3.6-0.7-4.3-2.6c-0.3-0.7-0.6-2.3-0.6-3.7c0-1.6,0.3-3.3,0.8-4.1c1-1.9,3-2.1,4.9-2.2l0.8,0c2-0.1,4.2-0.1,5.5,0.2
	c1.5,0.3,3,0.7,3,2.7H57.5z M11.7,19.8c1.5,0.3,2.9,0.6,2.9,2.6H3.6l0,2.1h8.1c2,0.2,3.1,1.7,3.1,3.2c0,2-0.8,3.9-3.1,4.1
	c-1.6,0.3-3.5,0.2-6.2,0.2c-1.8,0-4.7-0.1-4.7-2.7h10.8v-2.2H7.8H4.4c0,0-0.4,0-0.5,0c-2.1-0.1-3.2-1.7-3.2-3.6c0-1.8,1-3.5,3.3-3.8
	C5.3,19.6,10,19.5,11.7,19.8 M38.1,29.4h7v2.8H34.4V20h3.6L38.1,29.4z M28.5,27.1h-8.3v2.5h8.3V27.1z M20.4,19.8
	c1.7-0.3,6.2-0.3,7.7-0.1c2.4,0.2,3.3,1.8,3.3,3.8l0,8.6h-4.1h-0.8c-3.7,0.1-6.5,0.1-7.2-0.2c-1.8-0.8-2.2-1.9-2.2-3.8
	c0-1.8,1.4-3.3,3.2-3.3h8.1v-2.3H17.5C17.5,20.5,19,20.1,20.4,19.8"/>
</svg>
