<svg xmlns="http://www.w3.org/2000/svg" width="600" height="380"><path fill="#fff" d="M590 11H57c-25 0-47 21-47 47v311h533c25 0 47-21 47-47z"/><path fill="#004e83" d="M57 11c-25 0-47 21-47 47v293c53-33 284-163 580-157V11zm252 50h15l42 103h-21l-8-21h-42l-9 21h-20zm-153 0h14l27 66 29-66h13l17 103h-20l-9-62-27 63h-6l-26-63-11 62h-19zm-62 1c11 0 21 3 30 11l-10 13c-6-6-10-8-17-8-8 0-14 5-14 11s3 9 15 13c11 4 16 6 20 10 6 5 9 12 9 21 0 20-14 33-35 33-14 0-25-6-34-19l12-12c5 9 12 13 21 13s16-6 16-14c0-4-2-7-5-10l-14-6c-19-6-25-14-25-27 0-17 13-29 31-29zm222 29-14 36h28z"/><path fill="#dc291a" d="M28 369h515c25 0 47-21 47-47V218C310 213 89 333 28 369"/></svg>