<svg xmlns="http://www.w3.org/2000/svg" id="Layer_2" data-name="Layer 2" viewBox="0 0 260.7 49.9"><defs><style>.cls-1{fill:#0066b3}.cls-2{fill:#231f20}</style></defs><g id="Layer_1-2" data-name="Layer 1"><path d="M16.8 2.5S12 .5 7 4.5c0 0-6 4-7 20.7 0 0-.3 2.7 2.1 3.2 0 0 2.5.4 2.8-1.6.3-2.1.3-12.6 5-18 0 0 .4-.7 1.6-1.2A9 9 0 0 0 14 4.9s.9-1.3 2.8-2.4" class="cls-1"/><path d="M25.6 2.1s-4.3-1.4-9 2.2c0 0-5.5 3.4-6.8 16.9 0 0-.5 3.3-.3 5 0 0 .3 2 2.3 2.2 0 0 2.4.2 2.6-2.1l.2-3.3s.4-9 4-13.5l1 .7s1.2-4.7 6-8Z" class="cls-1"/><path d="M34.5 2.1s-5.9-1.3-10 3.2c0 0-4.2 3.8-5.5 13l-.6 7.4s0 2.4 2.2 2.7c0 0 2.4.1 2.5-2.3 0 0 .2-11.4 4.4-16.6l1 .7s1.8-5.3 6-8Z" class="cls-1"/><path d="M41.2 2s-5.9-.2-9.3 5.7c0 0-4 5.8-4 17.6 0 0-.2 2.8 2 3 0 0 2.6.2 2.6-2.7 0 0 .1-11.7 4.6-16.5 0 0 4 4.8 4.2 16 0 0 .2 7.6 1.6 11.8 0 0 1.3-4.7 1.6-11.3 0 0-.2-1.2.9-2 0 0 .7-.3.5-1.5 0 0-1-9.8-4.2-15.3 0 0 7-.4 8.3 13.3 0 0 0 2 1.1 3.3 0 0 .8.6.9 2 0 0 .2 2-.4 8.2 0 0-.1 1.4.5 3.3 0 0 1.7-4.7 1.2-9.3 0 0-.2-3.7 1.7-5 0 0-.2-10.4-4.3-16.1 0 0-3.3-4.8-9.5-4.5ZM61.7 49.3s4.8 1.9 9.8-2c0 0 5.9-4 7-20.7 0 0 .3-2.8-2.2-3.2 0 0-2.4-.4-2.8 1.6-.3 2.1-.2 12.6-4.9 18 0 0-.4.7-1.7 1.2a9 9 0 0 0-2.4 2.7s-1 1.2-2.9 2.4" class="cls-1"/><path d="M52.8 49.7s4.4 1.3 9-2.2c0 0 5.6-3.4 7-17 0 0 .4-3.3.1-5 0 0-.2-2-2.2-2.1 0 0-2.5-.2-2.6 2.1l-.2 3.2s-.4 9-4 13.5l-1-.6s-1.2 4.7-6 8Z" class="cls-1"/><path d="M44 49.7s5.8 1.3 10-3.3c0 0 4.2-3.7 5.4-13 0 0 .6-5 .6-7.4 0 0 0-2.3-2.2-2.6 0 0-2.3-.1-2.4 2.3 0 0-.2 11.4-4.4 16.6l-1-.7s-1.9 5.2-6 8Z" class="cls-1"/><path d="M37.3 49.8s5.9.2 9.3-5.7c0 0 4-5.8 4-17.6 0 0 .2-2.8-2-3.1 0 0-2.6-.2-2.6 2.8 0 0-.1 11.7-4.6 16.4 0 0-4-4.7-4.3-15.9 0 0-.1-7.6-1.5-11.8 0 0-1.3 4.7-1.6 11.3 0 0 .1 1.2-.9 2 0 0-.7.3-.6 1.5 0 0 1 9.8 4.3 15.3 0 0-7 .4-8.3-13.3 0 0 0-2-1.1-3.3 0 0-.8-.6-1-2 0 0-.1-2 .5-8.2 0 0 .1-1.4-.5-3.4 0 0-1.7 4.7-1.3 9.4 0 0 .3 3.7-1.6 5 0 0 .2 10.4 4.3 16.1 0 0 3.3 4.8 9.5 4.5Z" class="cls-1"/><path d="M86.5 15.5 89 7.9a2.1 2.1 0 0 1 3-1.3c1 .5 1.5 1.7 1 2.8L88.8 20c-.6 1.6-1.7 2.2-3.2 1.7-.7-.3-1.1-.7-1.5-1.7L80 9.4c-.5-1.2 0-2.3 1-2.8 1.2-.6 2.6 0 3 1.3l2.6 7.6ZM94.4 8.5A2.1 2.1 0 0 1 98 7c.3.4.6 1 .6 1.5v11.2c0 1.2-1 2.2-2.2 2.2-1.2 0-2.1-1-2.1-2.2V8.5Zm.3-7.8a2.5 2.5 0 1 1 3.5 3.5c-.9 1-2.5 1-3.4 0-.5-.4-.8-1-.8-1.7s.3-1.3.7-1.8ZM109.2 6.3c3.2.4 4.2 1.8 3.9 3.2-.2 1-1 1.5-1.8 1.5h-.4l-.2-.1-.4-.2h-.3l-.4-.2c-2.6-.8-4.7.7-4.7 3.7.1 2.9 2.2 4.3 5 3.4l.5-.2h.2c1.2-.5 2.4.1 2.6 1.4.1 1.1-.6 2.1-2.6 2.8l-1.6.3c-4.8.5-8.5-2.9-8.4-7.9 0-5 3.8-8.2 8.6-7.7ZM116.3 6.5V4c0-1.2 1-2.1 2.1-2.1s2.2 1 2.2 2.1v2.5h1.2c.5 0 1 .2 1.4.6.8.7.8 2 0 2.7a2 2 0 0 1-1.4.6h-1.2v9.3c0 .6-.3 1.1-.7 1.5-.8.9-2.1.9-3 0-.4-.4-.6-1-.6-1.5v-9.3h-.7a2 2 0 0 1-1.5-.6c-.7-.7-.7-2 0-2.7a2 2 0 0 1 1.5-.6h.7ZM124.6 8.4c0-1 .9-2 2.2-2 1.3-.2 2.2.7 2 1.5V8l.4-.4c1.7-1.8 3.6-1.7 4.4-.5.8 1.2.4 2.5-.7 3h-.3l-.5.2-1.3.6c-1.4.8-1.9 1.6-1.9 2.3v6.4c0 1.2-1 2.2-2.1 2.2s-2.2-1-2.2-2.2V8.4ZM135 9.9a7.4 7.4 0 0 1 6.3-3.7c4 0 7.4 3.4 7.4 7.9s-3.3 7.8-7.4 7.8-7.5-3.3-7.5-7.8c0-1.6.4-3 1.1-4.2Zm3.2 4.8c.3 2.6 1.9 3.8 3.7 3.3 1.2-.2 2.2-1.3 2.4-3.2v-1.4c-.3-1.8-1.2-3-2.4-3.2-1.8-.4-3.4.8-3.7 3.3v1.2ZM150.5 8.5c0-1 1-2 2.2-2.2 1.1 0 2 .7 2 1.4V8c.6-.8 1.5-1.3 2.8-1.6h2c3 .5 4.7 2.5 4.7 5.4v8c0 1.2-1 2.2-2.1 2.2-1.2 0-2.2-1-2.2-2.1v-7.4c0-.7-.3-1.3-.8-1.8a2.5 2.5 0 0 0-4.3 1.8v7.3c0 1.2-1 2.2-2.2 2.2-1.1 0-2.1-1-2.1-2.2V8.5ZM178.2 15.4c.2.6.4 1.1.8 1.6 1.1 1.3 3.2 1.7 5.6.4 1.4-.7 1.8-.8 2.5-.5.4.2.8.5 1 .9.5 1.5-1.4 4.1-6.6 4.1-5.4 0-9-4.4-7.7-9.7.7-3 3-5.3 6-5.8 3.3-.6 6.5 1 8 4.3.3.8.5 1.7.5 2.4.2 1.7-.3 2.4-1.8 2.4h-8.3Zm5.9-2.7v-.3c-.5-2-2-3-3.6-2.6-1 .3-2 1.1-2.3 2.5v.4h5.9ZM190 8.5c0-1 .8-2 2.1-2.2 1.1 0 2 .7 2 1.4V8c.6-.8 1.5-1.3 2.8-1.6h2.1c3 .5 4.6 2.5 4.6 5.4v8c0 1.2-1 2.2-2.1 2.2-1.2 0-2.2-1-2.2-2.1v-7.4c0-.7-.3-1.3-.8-1.8a2.5 2.5 0 0 0-4.3 1.8v7.3c0 1.2-1 2.2-2.1 2.2-1.2 0-2.2-1-2.2-2.2V8.5ZM210.1 15.4c.1.6.4 1.1.7 1.6 1.2 1.3 3.3 1.7 5.7.4 1.3-.7 1.7-.8 2.4-.5.5.2.8.5 1 .9.6 1.5-1.3 4.1-6.6 4.1s-8.9-4.4-7.6-9.7c.7-3 3-5.3 6-5.8 3.3-.6 6.5 1 7.9 4.3.3.8.6 1.7.6 2.4.2 1.7-.4 2.4-1.8 2.4H210Zm5.8-2.7v-.3c-.5-2-1.9-3-3.6-2.6-1 .3-1.9 1.1-2.3 2.5v.4h6ZM221.8 8.4c0-1 .9-2 2.2-2 1.3-.2 2.1.7 2 1.5V8l.4-.4c1.7-1.8 3.6-1.7 4.4-.5.8 1.2.4 2.5-.8 3h-.2l-.6.2-1.2.6c-1.4.8-1.9 1.6-1.9 2.3v6.4c0 1.2-1 2.2-2.2 2.2s-2.1-1-2.1-2.2V8.4ZM241.6 7.8c0-.8.8-1.5 2-1.4 1.3 0 2.2 1 2.2 2.2v11.2c0 5.6-3.3 8.7-9.2 8a11 11 0 0 1-3.2-.8c-2-1-2.5-2.4-1.5-3.5.6-.6 1.3-.7 2.3-.4l.9.4.6.2c3.6 1.3 5.7-.2 5.8-3v-.6c-1.6 2.3-5.5 2.7-8.3 0a8.7 8.7 0 0 1-2-7.7c.2-1.1.6-2 1-2.9 2.4-3.8 7.3-4.2 9.4-1.5v-.2Zm-5.4 9.2a2.9 2.9 0 0 0 4.5-.1c.5-.7.8-1.5.8-2.7 0-1.9-.7-3-1.8-3.6-1.9-1-4 .3-4.3 2.8v.8c0 1.2.3 2 .8 2.8ZM248.2 6.5c1.2-.5 2.4.1 2.9 1.5l2.7 7.2 2.7-7.2c.6-1.4 1.8-2 3-1.4 1 .5 1.5 1.7 1 2.8l-7 17c-.5 1.5-1.7 2-2.8 1.5a2.1 2.1 0 0 1-1.2-2.8l2-4.6L247 9.3c-.4-1 0-2.3 1.2-2.8ZM109.8 28.5c.7 0 1 .2 1 .7 0 .6-.4 1-1 1l-.7-.1v-1.6h.7Zm1.5 4.4c.4-.2.6-.6.6-1.1 0-.4-.1-.7-.3-1-.2-.2-.5-.4-1-.5.2 0 .5-.2.6-.4.2-.2.3-.4.3-.7 0-.4-.1-.8-.4-1s-.7-.3-1.3-.3h-1.4v5.5h1.5c.6 0 1-.2 1.4-.5Zm-.5-2c.2.2.3.4.3.8s-.1.6-.3.8c-.3.2-.6.3-1 .3h-.6v-2.1h.6c.4 0 .8 0 1 .2ZM122.8 33.4h-3.2v-5.5h.7v4.8h2.5v.7zM130.3 31.7V28h.8v3.8c0 .3 0 .6.3.8.2.2.5.3.8.3.4 0 .7-.1.9-.3.2-.2.3-.5.3-.9V28h.8v3.8c0 .6-.2 1-.6 1.3-.3.3-.8.5-1.4.5s-1-.2-1.4-.5c-.3-.3-.5-.7-.5-1.3ZM146.7 28.6h-2.5v1.5h1.8v.6h-1.8v2h2.5v.7h-3.3v-5.5h3.3v.7zM164.7 28.6c1 0 1.5.3 1.5 1s-.5 1-1.4 1h-.5v-2h.4Zm.2 2.7c1.4 0 2-.6 2-1.8 0-1-.7-1.6-2.3-1.6h-1v5.5h.7v-2.1h.6ZM175.6 29c.2-.3.6-.5 1-.5 1 0 1.6.7 1.6 2.1 0 .7-.1 1.2-.4 1.6-.3.4-.6.6-1.2.6-.4 0-.7-.2-1-.6-.3-.5-.4-1-.4-1.6s.2-1.2.4-1.5Zm-.6 3.7c.4.5 1 .8 1.6.8.8 0 1.4-.3 1.8-.8.4-.5.6-1.2.6-2s-.2-1.6-.6-2.1c-.4-.5-1-.8-1.8-.8a2 2 0 0 0-1.6.8c-.4.6-.6 1.2-.6 2s.2 1.5.6 2ZM192.6 27.9l-1.7 5.6h-.2l-1.3-3.8-1.2 3.8h-.3l-1.7-5.6h.8l1.1 3.8 1.2-3.8h.3l1.1 3.8 1.2-3.8h.7zM203.4 28.6h-2.5v1.5h1.8v.6h-1.8v2h2.4v.7h-3.2v-5.5h3.3v.7zM212.3 28.6l1 .1c.2.2.4.4.4.7 0 .4-.1.6-.3.8l-1 .2h-.6v-1.8h.5Zm1 2.3c.4-.1.6-.3.8-.5.2-.3.3-.6.3-1 0-1-.6-1.5-2-1.5H211.2v5.5h.8V31h.7l1.5 2.4h.8l-1.5-2.5Z" class="cls-2"/></g></svg>