<?xml version="1.0" encoding="utf-8"?><!DOCTYPE svg PUBLIC "-//W3C//DTD SVG 1.1//EN" "http://www.w3.org/Graphics/SVG/1.1/DTD/svg11.dtd"><svg viewBox="0 0 500 640" xmlns="http://www.w3.org/2000/svg"><g stroke="#000" stroke-linecap="round" stroke-linejoin="round"><path d="m.5.5v474.25c0 68.898 55.852 124.75 124.75 124.75h62.375c27.289 0 50.92 17.163 62.375 40 11.455-22.837 35.086-40 62.375-40h62.375c68.898 0 124.75-55.852 124.75-124.75v-474.25z" fill="#eac102"/><path d="m444.056 290v288.4688c-16.1972 10.8445-35.0898 17.9958-55.445 20.25v-308.7188z" fill="#ed1c24" fill-rule="evenodd"/><path d="m333.167 290v309.5h-20.792c-12.6144 0-24.4432 3.6752-34.653 9.875v-319.375z" fill="#ed1c24" fill-rule="evenodd"/><path d="m166.833 290v309.5h20.792c12.6144 0 24.4432 3.6752 34.653 9.875v-319.375z" fill="#ed1c24" fill-rule="evenodd"/><path d="m55.944 290v288.4688c16.1972 10.8445 35.0898 17.9958 55.445 20.25v-308.7188z" fill="#ed1c24" fill-rule="evenodd"/><path d="m.5.5v299.5h499v-299.5z" fill="#0071bc"/></g><path d="m100.5 30.75 116.6563 119.5-116.6563 119.5h65.7l83.8-85.8438 83.8 85.8438h65.7l-116.6563-119.5 116.6563-119.5h-65.7l-83.8 85.8438-83.8-85.8438z" fill="#eac102" stroke="#000" stroke-linecap="round" stroke-linejoin="round"/><path d="m1.5 1.5v473.25c0 68.35 55.4 123.75 123.75 123.75h62.375c27.18 0 50.966 17.254 62.375 40 11.409-22.746 35.195-40 62.375-40h62.375c68.35 0 123.75-55.4 123.75-123.75v-473.25z" fill="none" stroke="#000" stroke-linecap="round" stroke-linejoin="round" stroke-width="3"/></svg>