<?xml version="1.0" encoding="utf-8"?><!DOCTYPE svg PUBLIC "-//W3C//DTD SVG 1.1//EN" "http://www.w3.org/Graphics/SVG/1.1/DTD/svg11.dtd"><svg viewBox="0 0 900 960" xmlns="http://www.w3.org/2000/svg"><g stroke="#000" stroke-linecap="round" stroke-linejoin="round"><path d="m430.1797 891.9163-9.9317-16.3674-5.5551-.1292-29.2344 61.2693-50.1619 19.0915-38.327-43.7807c7.082-8.1343 12.8607-16.3772 18.2854-26.099l-3.6789-8.8014-28.1895 33.8135-42.6307 30.6327-95.3769-27.8739c33.0035-18.4465 72.4869-55.8988 92.2835-89.6619l-21.6078-15.6508-41.8082 16.5866-24.165-18.9025-48.1716-147.2553v-193.1805c-79.4608 0-65.2981-62.676-65.2981-157.6606l27.4373 10.0311 28.6877.4922c19.6378-10.2219 24.8967-32.8046 24.8967-56.196 0-36.083-8.2895-59.3806-15.0066-73.9659-11.6088 9.2893-22.4611 19.6596-35.3244 32.4613l-41.3217-2.7825-24.12-34.6988 16.7988-38.4219c40.0616-23.1072 67.4062-38.909 96.8648-65.0919 19.3284-17.1792 43.3477-11.8031 57.8415-3.5995 23.4529 13.2746 38.3775 41.2028 55.1994 69.3147 74.0439 0 109.5651-15.7455 86.2021-91.1145l93.5373-51.6268 32.185 25.1051-9.474 101.0617 9.7411 8.1075 9.2434.4352 9.2435-.4352 9.7411-8.1075-9.474-101.0617 32.185-25.1051 93.5373 51.6268c-23.363 75.3691 12.1582 91.1145 86.2021 91.1145 16.8219-28.1119 31.7465-56.0401 55.1994-69.3147 14.4939-8.2037 38.5131-13.5797 57.8415 3.5995 29.4586 26.1828 56.8032 41.9847 96.8648 65.0919l16.7988 38.4219-24.12 34.6988-41.3217 2.7825c-12.8633-12.8017-23.7156-23.172-35.3244-32.4613-6.7171 14.5853-15.0066 37.8829-15.0066 73.9659 0 23.3914 5.2588 45.9741 24.8967 56.196l28.6877-.4922 27.4373-10.0311c0 94.9846 14.1627 157.6606-65.2981 157.6606v193.1805l-48.1716 147.2553-24.165 18.9025-41.8081-16.5866-21.6079 15.6508c19.7966 33.7631 59.28 71.2154 92.2834 89.6619l-95.3769 27.8739-42.6307-30.6327-28.1895-33.8135-3.6789 8.8014c5.4247 9.7218 11.2034 17.9647 18.2854 26.099l-38.327 43.7807-50.1619-19.0915-29.2345-61.2693-5.5551.1292-9.9317 16.3674-19.8203 7.4173z" fill="#eac102"/><path d="m228.2297 944.9365c-24.6062-6.8428-51.257-13.278-72.4945-18.4622-26.8531-6.5549-13.8819-52.4217 13.4986-44.64 17.9616 5.1048 43.114 10.6104 67.1923 13.8929l-25.1137 20.2108z" fill="#eac102"/><path d="m236.9101 916.9782c-2.2674-.3497-11.9591-3.9088-18.2834-5.556" fill="none"/><path d="m235.5971 927.5831c-6.6025-1.8736-13.9268-4.3693-20.1211-6.2103" fill="none"/><path d="m46.0613 301.3551-9.4496 6.5916c7.9485 14.2819 81.0216 43.6647 81.0216-45.6727 0 74.7468-62.1799 52.1472-71.572 39.0811z" fill="#eac102"/><path d="m410.6905 27.8656c-6.7442.3798-17.3081.4851-26.7507.4496" fill="#eac102" fill-rule="evenodd"/><path d="m411.7951 40.7043c-2.7564-1.5901-16.7319-1.0378-26.7658-1.004" fill="#eac102" fill-rule="evenodd"/><path d="m401.3167 62.555c-37.873-2.0676-73.5509-3.8079-106.5512-2.8333-29.8132.8805-38.4759-61.3985.1058-59.1629 30.3648 1.7595 72.8528 1.8114 111.729-.0147l-27.5891 28.6771z" fill="#eac102"/><path d="m40.7657 178.5081c12.621-7.5956 23.8763-15.4424 33.6805-23.9529" fill="none"/><path d="m46.07 188.7272c11.5709-6.3152 20.504 8.7307 16.5686 18.1919-10.6558 25.6179-50.6367.0253-50.6367-30.6895 0-19.3417 28.6233-43.4123 69.45-13.5312 11.588 8.4813 36.1818 36.9427 36.1818 99.5756 0-73.3906-35.8345-123.2973-77.1969-123.2973-7.6513 0-15.2246 2.1488-21.7774 5.8894-11.7112 6.6851-18.1593 18.3015-18.1593 30.7342 0 41.285 46.0402 66.7476 66.8023 45.169 2.5696-2.6706 4.7423-6.0527 6.3318-10.2238 7.9465-20.8537-12.8987-42.7639-33.1672-31.8883" fill="#eac102"/><path d="m40.7657 178.5084c-12.6947 6.8117-18.8038 17.9578-24.9408 24.9941-4.7247 5.417-6.8596 9.1344-15.3248 9.562 2.4214 3.778 14.5847 9.5496 24.061-2.0095 7.0737-8.6284 12.2756-17.2812 21.6586-22.4022" fill="#eac102"/><path d="m315.2549 885.9007c1.5147-2.7146 3.7988-7.6684 5.1061-10.1841-7.0028-.299-15.1759-1.3658-19.8358-2.7192-7.4967 13.6708-19.5403 30.9747-30.7549 41.4718-12.7985 11.9797-19.7957 21.8332-35.7334 19.9088-20.6593-2.4944-15.9623-29.5755 1.2016-27.5031 8.7941 1.0619 6.1724 10.7862 1.6716 10.1033-3.4209-.519-4.9439 1.1757-5.3793 4.1582-.4356 2.9824 1.1438 5.6535 4.0662 6.4467 19.1125 5.1869 24.0315-28.3603.8289-31.8558-14.4416-2.1757-25.2751 6.6056-27.0242 20.9436-1.7286 14.1705 6.6727 24.9145 18.8279 28.2657 1.4251.3929 2.8953.683 4.4135.8663 20.2128 2.4405 30.6921-9.5041 45.0563-22.9494 11.85-11.0919 20.5297-23.0028 29.1434-38.2685 1.7091.6683 6.0502 1.1823 8.4121 1.3158z" fill="#eac102"/><path d="m337.1885 959.169c-25.2557-3.8436-52.4916-7.0375-74.2023-9.6382-27.4514-3.2885-20.1292-50.3759 7.9943-45.9328 18.4489 2.9146 44.0849 5.3653 68.3853 5.7378l-22.4831 23.0738z" fill="#eac102"/><path d="m342.4199 930.374c-2.2932-.0755-12.3453-2.4469-18.8231-3.324" fill="none"/><path d="m342.4007 941.0589c-6.7813-1.0686-14.3545-2.6681-20.7266-3.7533" fill="none"/><path d="m151.4905 818.1203c-63.1137-74.4807-100.7481-153.1234-100.7481-300.1558 0-43.1406 82.0618-44.8622 82.0618 0 0 128.5543 9.5242 186.4576 48.7062 272.1268l-23.9226.7986z" fill="#eac102"/><path d="m242.1072 815.575c-9.621-4.1225-18.5924-8.8013-27.0337-15.2711-9.9492 11.1331-23.7319 16.369-35.1682 16.658-7.5805.1916-18.6853-1.8083-21.2681-9.8602-2.4458-7.6249 5.6238-15.7695 12.0281-12.6841 1.9016.9161-1.7135 5.0389 3.4722 7.3209 2.7125 1.1936 6.2831-.3453 7.4329-3.0652 1.3289-3.1434 1.0978-6.075-.0597-8.5821-2.4763-5.3617-9.684-8.6796-16.1775-7.6917-13.9351 2.1201-20.4134 14.8885-18.083 26.89.6704 3.4524 2.1598 6.395 4.2403 8.8308 6.5515 7.6703 18.8342 10.6083 28.7764 10.3502 11.8884-.3086 25.9133-6.1527 36.991-15.6937 5.6002 4.6316 13.2376 8.5904 20.4046 11.233 1.6708-2.9589 3.0201-5.1077 4.4448-8.4348z" fill="#eac102"/><path d="m306.8429 884.5849-6.3177-11.5875" fill="none"/><path d="m215.0735 800.3039 2.1843 12.4729" fill="none"/><path d="m455.5574 878.4716c0 2.6182-2.4881 4.7407-5.5573 4.7407s-5.5575-2.1225-5.5575-4.7407 2.4883-4.7406 5.5575-4.7406 5.5573 2.1225 5.5573 4.7406z" fill="none"/><path d="m671.7704 944.9365c24.6062-6.8428 51.2569-13.278 72.4945-18.4622 26.8532-6.5549 13.8819-52.4217-13.4986-44.64-17.9616 5.1048-43.114 10.6104-67.1923 13.8929l25.1137 20.2108z" fill="#eac102"/><path d="m663.0899 916.9782c2.2674-.3497 11.9591-3.9088 18.2834-5.556" fill="none"/><path d="m664.403 927.5831c6.6025-1.8736 13.9268-4.3693 20.121-6.2103" fill="none"/><path d="m853.9387 301.3551 9.4496 6.5916c-7.9485 14.2819-81.0216 43.6647-81.0216-45.6727 0 74.7468 62.1799 52.1472 71.572 39.0811z" fill="#eac102"/><path d="m489.3095 27.8656c6.7442.3798 17.3081.4851 26.7507.4496" fill="#eac102" fill-rule="evenodd"/><path d="m488.2049 40.7043c2.7564-1.5901 16.7319-1.0378 26.7658-1.004" fill="#eac102" fill-rule="evenodd"/><path d="m498.6833 62.555c37.873-2.0676 73.5509-3.8079 106.5512-2.8333 29.8132.8805 38.4759-61.3985-.1058-59.1629-30.3648 1.7595-72.8528 1.8114-111.7291-.0147l27.5891 28.6771z" fill="#eac102"/><path d="m473.527 100.6631c-9.573-37.5192-10.1921-60.1882-4.612-72.7376s14.4952-15.9142 22.7742-15.9142c23.421 0 26.7232 39.1111 4.7748 39.1111-7.3375 0-9.2399-4.6803-8.9581-8.5287.3731-5.0945 7.2168-.6213 7.5577-8.6741.1463-3.4565-2.7258-5.9097-5.7542-6.054-4.887-.2328-9.2765 2.6382-11.1763 6.3537-6.5434 12.7968 1.3129 28.4117 18.331 28.4117.7565 0 1.4961-.0256 2.2192-.0756 34.4038-2.3816 31.0606-60.2486-5.2836-62.0114-.5624-.0273-1.1323-.0411-1.7104-.0411-12.2308 0-25.461 5.2038-32.7136 21.5144s-3.6425 45.4709 6.5485 84.3194c3.6309 13.8412 5.4049 29.4706-15.5242 29.4706s-19.1551-15.6294-15.5242-29.4706c10.191-38.8485 13.8011-68.0088 6.5485-84.3194s-20.4828-21.5144-32.7136-21.5144c-.5781 0-1.148.0139-1.7104.0411-36.3443 1.7628-39.6874 59.6298-5.2836 62.0114.7231.0501 1.4628.0756 2.2192.0756 17.0181 0 24.8743-15.6149 18.3309-28.4117-1.8998-3.7155-6.2894-6.5865-11.1763-6.3537-3.0285.1443-5.9006 2.5974-5.7542 6.054.3409 8.0528 7.1846 3.5796 7.5577 8.6741.2819 3.8484-1.6206 8.5287-8.9581 8.5287-21.9483 0-18.6462-39.1111 4.7748-39.1111 8.279 0 17.1941 3.3648 22.7742 15.9142 5.5802 12.5494 4.9611 35.2184-4.6119 72.7376-5.5541 21.7683-1.3928 38.2663 23.527 38.2663s29.0812-16.498 23.527-38.2663z" fill="#eac102"/><path d="m859.2344 178.5081c-12.6211-7.5956-23.8763-15.4424-33.6805-23.9529" fill="none"/><path d="m853.93 188.7272c-11.5709-6.3152-20.504 8.7307-16.5686 18.1919 10.6558 25.6179 50.6368.0253 50.6368-30.6895 0-19.3417-28.6233-43.4123-69.45-13.5312-11.588 8.4813-36.1818 36.9427-36.1818 99.5756 0-73.3906 35.8345-123.2973 77.1969-123.2973 7.6513 0 15.2246 2.1488 21.7774 5.8894 11.7112 6.6851 18.1593 18.3015 18.1593 30.7342 0 41.285-46.0402 66.7476-66.8023 45.169-2.5696-2.6706-4.7423-6.0527-6.3318-10.2238-7.9465-20.8537 12.8987-42.7639 33.1672-31.8883" fill="#eac102"/><path d="m859.2344 178.5084c12.6947 6.8117 18.8038 17.9578 24.9408 24.9941 4.7247 5.417 6.8596 9.1344 15.3248 9.562-2.4214 3.778-14.5847 9.5496-24.061-2.0095-7.0737-8.6284-12.2757-17.2812-21.6587-22.4022" fill="#eac102"/><path d="m584.7451 885.9007c-1.5147-2.7146-3.7988-7.6684-5.1061-10.1841 7.0028-.299 15.1759-1.3658 19.8358-2.7192 7.4967 13.6708 19.5403 30.9747 30.7549 41.4718 12.7985 11.9797 19.7957 21.8332 35.7334 19.9088 20.6593-2.4944 15.9623-29.5755-1.2016-27.5031-8.7941 1.0619-6.1724 10.7862-1.6716 10.1033 3.4209-.519 4.9439 1.1757 5.3793 4.1582.4356 2.9824-1.1438 5.6535-4.0662 6.4467-19.1125 5.1869-24.0315-28.3603-.8289-31.8558 14.4416-2.1757 25.275 6.6056 27.0242 20.9436 1.7286 14.1705-6.6726 24.9145-18.8279 28.2657-1.4251.3929-2.8954.683-4.4135.8663-20.2128 2.4405-30.6921-9.5041-45.0563-22.9494-11.85-11.0919-20.5297-23.0028-29.1434-38.2685-1.7091.6683-6.0502 1.1823-8.4121 1.3158z" fill="#eac102"/><path d="m562.8115 959.169c25.2557-3.8436 52.4916-7.0375 74.2023-9.6382 27.4514-3.2885 20.1292-50.3759-7.9943-45.9328-18.4489 2.9146-44.0849 5.3653-68.3853 5.7378l22.4831 23.0738z" fill="#eac102"/><path d="m557.5801 930.374c2.2932-.0755 12.3453-2.4469 18.8231-3.324" fill="none"/><path d="m557.5993 941.0589c6.7813-1.0686 14.3545-2.6681 20.7266-3.7533" fill="none"/><path d="m748.5095 818.1203c63.1137-74.4807 100.7482-153.1234 100.7482-300.1558 0-43.1406-82.0618-44.8622-82.0618 0 0 128.5543-9.5242 186.4576-48.7062 272.1268l23.9226.7986z" fill="#eac102"/><path d="m657.8928 815.575c9.621-4.1225 18.5924-8.8013 27.0337-15.2711 9.9492 11.1331 23.7319 16.369 35.1682 16.658 7.5805.1916 18.6853-1.8083 21.2681-9.8602 2.4458-7.6249-5.6238-15.7695-12.0281-12.6841-1.9016.9161 1.7135 5.0389-3.4722 7.3209-2.7125 1.1936-6.2831-.3453-7.4329-3.0652-1.3289-3.1434-1.0978-6.075.0597-8.5821 2.4763-5.3617 9.684-8.6796 16.1775-7.6917 13.9351 2.1201 20.4134 14.8885 18.083 26.89-.6704 3.4524-2.1598 6.395-4.2403 8.8308-6.5515 7.6703-18.8341 10.6083-28.7764 10.3502-11.8884-.3086-25.9133-6.1527-36.991-15.6937-5.6002 4.6316-13.2376 8.5904-20.4046 11.233-1.6708-2.9589-3.0201-5.1077-4.4448-8.4348z" fill="#eac102"/><path d="m593.1571 884.5849 6.3177-11.5875" fill="none"/><path d="m684.9265 800.3039-2.1843 12.4729" fill="none"/><path d="m422.6253 882.7981h-10.5094c-2.4808 17.981-10.8844 38.4688-21.4282 51.0474-12.6314 15.0691-28.6518 25.6545-49.0129 25.6545-1.5293 0-3.024-.1118-4.4863-.331-12.4725-1.8698-22.1138-11.5285-22.1138-25.803 0-14.4431 9.6911-24.459 24.291-24.0302 23.4569.6889 22.6363 34.5814 3.0349 31.7231-2.9971-.4371-4.8886-2.8994-4.8173-5.9123s1.3776-4.8779 4.8364-4.7727c4.5508.1385 5.9758-9.8293-2.8829-9.8293-17.2898 0-18.673 27.4468 2.1378 27.4468 16.0546 0 30.648-7.503 41.9024-20.9295 11.2545-13.4265 23.4727-36.7162 27.6638-55.7933h12.2466c0 13.3116 10.7054 23.1651 26.5123 23.1651s26.5123-9.8536 26.5123-23.1651h12.2466c4.1911 19.0771 16.4093 42.3668 27.6638 55.7933 11.2544 13.4265 25.8479 20.9295 41.9024 20.9295 20.8108 0 19.4277-27.4468 2.1378-27.4468-8.8587 0-7.4337 9.9678-2.8829 9.8293 3.4588-.1052 4.7651 1.7597 4.8364 4.7727.0713 3.0129-1.8201 5.4752-4.8172 5.9123-19.6014 2.8582-20.4219-31.0343 3.0349-31.7231 14.5999-.4288 24.291 9.5871 24.291 24.0302 0 14.2745-9.6413 23.9332-22.1137 25.803-1.4623.2192-2.9571.331-4.4863.331-20.3611 0-36.3816-10.5854-49.0129-25.6545-10.5437-12.5786-18.9473-33.0664-21.4282-51.0474h-10.5094c-1.4088 11.0718-9.7628 23.1441-27.3747 23.1441s-25.9659-12.0723-27.3747-23.1441z" fill="#eac102"/><path d="m476.5123 871.2686.8624 11.5296" fill="none"/><path d="m487.8841 882.7982.8748-11.5296" fill="none"/><path d="m423.4877 871.2686-.8624 11.5296" fill="none"/><path d="m412.1159 882.7982-.8748-11.5296" fill="none"/></g><g stroke="#000" stroke-linecap="round" stroke-linejoin="round"><path d="m200.5 220.5v349.5c0 137.724 111.776 249.5 249.5 249.5s249.5-111.776 249.5-249.5v-349.5z" fill="#eac102"/><path d="m320.6299 300v440h36.9629v-440z" fill="#ed1c24"/><path d="m394.5557 300v440h36.9629v-440z" fill="#ed1c24"/><path d="m505.4443 300v440h-36.9629v-440z" fill="#ed1c24"/><path d="m579.3701 300v440h-36.9629v-440z" fill="#ed1c24"/><path d="m283.667 303.667v266.333c0 91.824 74.509 166.333 166.333 166.333s166.333-74.509 166.333-166.333v-266.333zm-83.167-83.167v349.5c0 137.724 111.776 249.5 249.5 249.5s249.5-111.776 249.5-249.5v-349.5z" fill="#0071bc" fill-rule="evenodd"/></g><g><g stroke="#000" stroke-linecap="round" stroke-linejoin="round"><path d="m325.5 520 124.5-124.5 124.5 124.5-124.5 124.5z" fill="#e5e5e5" fill-rule="evenodd"/><path d="m380.8521 575.3566 69.1452 69.1434 69.1506-69.1434z" fill="#0071bc"/><path d="m438.7182 459.6225h22.5637l2.5346 49.4177h-27.6328z" fill="#eac102"/><path d="m436.1836 444.3566h5.5266v5.5286h5.5266v-5.5286h5.5264v5.5286h5.5266v-5.5286h5.5266v16.7045h-27.6328z" fill="#eac102"/><path d="m420.5533 490.3364h58.8934v34.6684h-58.8934z" fill="#eac102"/><path d="m495.6821 491.5457h-22.5637l-2.5345 49.4177h27.6328z" fill="#eac102"/><path d="m404.3179 491.5457h22.5637l2.5346 49.4177h-27.6328z" fill="#eac102"/><path d="m401.7833 476.2798h5.5266v5.5286h5.5266v-5.5286h5.5265v5.5286h5.5266v-5.5286h5.5266v16.7045h-27.6328z" fill="#eac102"/><path d="m409.4076 520.0522h81.1848v55.3044h-81.1848z" fill="#eac102"/><path d="m393.0345 525.9389h22.5637l2.5346 49.4176h-27.6328z" fill="#eac102"/><path d="m506.9655 525.9389h-22.5637l-2.5346 49.4176h27.6328z" fill="#eac102"/><path d="m498.2167 476.2798h-5.5266v5.5286h-5.5266v-5.5286h-5.5265v5.5286h-5.5266v-5.5286h-5.5266v16.7045h27.6328z" fill="#eac102"/><path d="m449.9999 533.672c5.7175 0 10.3202 4.6018 10.3202 10.318v31.3666h-20.6402v-31.3666c0-5.7162 4.6027-10.318 10.32-10.318z"/><path d="m390.5 510.6731h5.5266v5.5286h5.5266v-5.5286h5.5265v5.5286h5.5266v-5.5286h5.5266v16.7045h-27.6328z" fill="#eac102"/><path d="m509.5 510.6731h-5.5266v5.5286h-5.5266v-5.5286h-5.5265v5.5286h-5.5266v-5.5286h-5.5266v16.7045h27.6328z" fill="#eac102"/></g><g><path d="m678.237 501.3805c5.1575-4.1116 8.3466-9.777 8.3466-16.0293 0-3.0149-.7794-5.876-2.0903-8.5307-1.3328-2.6985-3.6361-3.1433-2.5207-8.1317.1112-.4987.1939-.8913.1939-1.3543 0-4.2568-9.854-8.2198-24.2495-8.2198s-24.2494 3.963-24.2494 8.2198c0 .463.0819.8556.1939 1.3543 1.1154 4.9884-1.1879 5.4332-2.5207 8.1317-1.311 2.6547-2.0905 5.5158-2.0905 8.5307 0 6.2523 3.1891 11.9177 8.3467 16.0293 5.1935 4.1402 12.3825 6.7063 20.32 6.7063 7.9376 0 15.1266-2.5661 20.3201-6.7063z" fill="#eac102" fill-rule="evenodd" stroke="#000" stroke-linecap="round" stroke-linejoin="round"/><path d="m680.0823 467.8253c0-3.1692-10.4826-6.478-22.1654-6.478-11.6827 0-22.1654 3.3088-22.1654 6.478 0 3.1691 10.3198 6.4782 22.1654 6.4782s22.1654-3.3091 22.1654-6.4782z" stroke="#000" stroke-linecap="round" stroke-linejoin="round"/><path d="m676.9829 469.0759c-2.8882-2.1508-9.6566-3.8873-19.066-3.8873-9.4093 0-16.1778 1.7365-19.066 3.8873 8.7137-2.2552 11.2307-2.6177 19.066-2.6177s10.3524.3625 19.066 2.6177z" fill="#eac102"/><path d="m637.0806 461.3389c.0386 4.8006-7.8195 4.8222-7.8303 0-.0117-5.123 2.3461-4.9381 2.4807 0 .0702 2.5786 2.4258 2.9284 2.3971 0-.121-12.4534 10.4475-22.2518 23.7888-22.2518 13.341 0 23.9099 9.7984 23.789 22.2518-.0293 2.9284 2.3269 2.5786 2.397 0 .1346-4.9381 2.491-5.123 2.4807 0-.0117 4.8222-7.8684 4.8006-7.8303 0 .0913-11.5455-9.927-19.3254-20.8362-19.3254-10.9093 0-20.9281 7.7799-20.8363 19.3254z" fill="#eac102" fill-rule="evenodd" stroke="#000" stroke-linecap="round" stroke-linejoin="round"/><path d="m681.8074 466.2905c-.0878 1.888-.048 2.0866-.5242 3.0092-.7197 1.3901-.2572 2.9709.6597 2.9351.8276-.033 2.2299-2.3191 2.2299-3.4428v-7.2617c0-.9081-.7893-1.3371-1.347-1.3371s-1.035.5963-1.035 1.6149c0 1.0184.0726 3.3003.0164 4.4824z" fill="#eac102" stroke="#000" stroke-linecap="round" stroke-linejoin="round"/><path d="m636.9491 499.0627c.9098 1.2881 1.9035 2.1727 3.6941 2.9984l-6.8098 6.026-1.153-1.0095 4.2688-8.0149z" fill="#eac102" stroke="#000" stroke-linecap="round" stroke-linejoin="round"/><path d="m634.0263 466.2905c.0878 1.888.048 2.0866.5243 3.0092.7196 1.3901.2572 2.9709-.6597 2.9351-.8277-.033-2.2299-2.3191-2.2299-3.4428v-7.2617c0-.9081.7892-1.3371 1.347-1.3371.5577 0 1.035.5963 1.035 1.6149-.0001 1.0184-.0725 3.3003-.0164 4.4824z" fill="#eac102" stroke="#000" stroke-linecap="round" stroke-linejoin="round"/><path d="m680.0884 475.2476c-5.8817 2.2238-13.0093 4.4119-22.1715 4.4119s-16.2897-2.1881-22.1715-4.4119c3.3773 1.9117 11.6753 5.377 22.1715 5.377s18.7943-3.4653 22.1715-5.377z" stroke="#000" stroke-linecap="round" stroke-linejoin="round"/><path d="m678.8848 499.0627c-.9097 1.2881-1.9035 2.1727-3.6941 2.9984l6.8099 6.026 1.1529-1.0095-4.2686-8.0149z" fill="#eac102" stroke="#000" stroke-linecap="round" stroke-linejoin="round"/></g><g><path d="m262.4036 289.8769c5.1575-4.1116 8.3466-9.777 8.3466-16.0293 0-3.0149-.7794-5.876-2.0903-8.5307-1.3328-2.6985-3.6361-3.1433-2.5207-8.1317.1112-.4987.1939-.8913.1939-1.3543 0-4.2568-9.854-8.2198-24.2495-8.2198s-24.2494 3.963-24.2494 8.2198c0 .463.0819.8556.1939 1.3543 1.1154 4.9884-1.1879 5.4332-2.5207 8.1317-1.311 2.6547-2.0905 5.5158-2.0905 8.5307 0 6.2523 3.1891 11.9177 8.3467 16.0293 5.1935 4.1402 12.3825 6.7063 20.32 6.7063 7.9376 0 15.1266-2.5661 20.3201-6.7063z" fill="#eac102" fill-rule="evenodd" stroke="#000" stroke-linecap="round" stroke-linejoin="round"/><path d="m264.249 256.3217c0-3.1692-10.4826-6.478-22.1654-6.478-11.6827 0-22.1654 3.3088-22.1654 6.478 0 3.1691 10.3198 6.4782 22.1654 6.4782s22.1654-3.3091 22.1654-6.4782z" stroke="#000" stroke-linecap="round" stroke-linejoin="round"/><path d="m261.1496 257.5723c-2.8882-2.1508-9.6566-3.8873-19.066-3.8873-9.4093 0-16.1778 1.7365-19.066 3.8873 8.7137-2.2552 11.2307-2.6177 19.066-2.6177s10.3524.3625 19.066 2.6177z" fill="#eac102"/><path d="m221.2472 249.8353c.0386 4.8006-7.8195 4.8222-7.8303 0-.0117-5.123 2.3461-4.9381 2.4807 0 .0702 2.5786 2.4258 2.9284 2.3971 0-.121-12.4534 10.4475-22.2518 23.7888-22.2518 13.341 0 23.9099 9.7984 23.789 22.2518-.0293 2.9284 2.3269 2.5786 2.397 0 .1346-4.9381 2.491-5.123 2.4807 0-.0117 4.8222-7.8684 4.8006-7.8303 0 .0913-11.5455-9.927-19.3254-20.8362-19.3254-10.9093 0-20.9281 7.7799-20.8363 19.3254z" fill="#eac102" fill-rule="evenodd" stroke="#000" stroke-linecap="round" stroke-linejoin="round"/><path d="m265.974 254.7869c-.0878 1.888-.048 2.0866-.5242 3.0092-.7197 1.3901-.2572 2.9709.6597 2.9351.8276-.033 2.2299-2.3191 2.2299-3.4428v-7.2617c0-.9081-.7893-1.3371-1.347-1.3371s-1.035.5963-1.035 1.6149c0 1.0184.0726 3.3003.0164 4.4824z" fill="#eac102" stroke="#000" stroke-linecap="round" stroke-linejoin="round"/><path d="m221.1157 287.5591c.9098 1.2881 1.9035 2.1727 3.6941 2.9984l-6.8098 6.026-1.153-1.0095 4.2688-8.0149z" fill="#eac102" stroke="#000" stroke-linecap="round" stroke-linejoin="round"/><path d="m218.193 254.7869c.0878 1.888.048 2.0866.5243 3.0092.7196 1.3901.2572 2.9709-.6597 2.9351-.8277-.033-2.2299-2.3191-2.2299-3.4428v-7.2617c0-.9081.7892-1.3371 1.347-1.3371.5577 0 1.035.5963 1.035 1.6149-.0001 1.0184-.0725 3.3003-.0164 4.4824z" fill="#eac102" stroke="#000" stroke-linecap="round" stroke-linejoin="round"/><path d="m264.255 263.744c-5.8817 2.2238-13.0093 4.4119-22.1715 4.4119s-16.2897-2.1881-22.1715-4.4119c3.3773 1.9117 11.6753 5.377 22.1715 5.377s18.7943-3.4653 22.1715-5.377z" stroke="#000" stroke-linecap="round" stroke-linejoin="round"/><path d="m263.0514 287.5591c-.9097 1.2881-1.9035 2.1727-3.6941 2.9984l6.8099 6.026 1.1529-1.0095-4.2686-8.0149z" fill="#eac102" stroke="#000" stroke-linecap="round" stroke-linejoin="round"/></g><g><path d="m678.237 289.8769c5.1575-4.1116 8.3466-9.777 8.3466-16.0293 0-3.0149-.7794-5.876-2.0903-8.5307-1.3328-2.6985-3.6361-3.1433-2.5207-8.1317.1112-.4987.1939-.8913.1939-1.3543 0-4.2568-9.854-8.2198-24.2495-8.2198s-24.2494 3.963-24.2494 8.2198c0 .463.0819.8556.1939 1.3543 1.1154 4.9884-1.1879 5.4332-2.5207 8.1317-1.311 2.6547-2.0905 5.5158-2.0905 8.5307 0 6.2523 3.1891 11.9177 8.3467 16.0293 5.1935 4.1402 12.3825 6.7063 20.32 6.7063 7.9376 0 15.1266-2.5661 20.3201-6.7063z" fill="#eac102" fill-rule="evenodd" stroke="#000" stroke-linecap="round" stroke-linejoin="round"/><path d="m680.0823 256.3217c0-3.1692-10.4826-6.478-22.1654-6.478-11.6827 0-22.1654 3.3088-22.1654 6.478 0 3.1691 10.3198 6.4782 22.1654 6.4782s22.1654-3.3091 22.1654-6.4782z" stroke="#000" stroke-linecap="round" stroke-linejoin="round"/><path d="m676.9829 257.5723c-2.8882-2.1508-9.6566-3.8873-19.066-3.8873-9.4093 0-16.1778 1.7365-19.066 3.8873 8.7137-2.2552 11.2307-2.6177 19.066-2.6177s10.3524.3625 19.066 2.6177z" fill="#eac102"/><path d="m637.0806 249.8353c.0386 4.8006-7.8195 4.8222-7.8303 0-.0117-5.123 2.3461-4.9381 2.4807 0 .0702 2.5786 2.4258 2.9284 2.3971 0-.121-12.4534 10.4475-22.2518 23.7888-22.2518 13.341 0 23.9099 9.7984 23.789 22.2518-.0293 2.9284 2.3269 2.5786 2.397 0 .1346-4.9381 2.491-5.123 2.4807 0-.0117 4.8222-7.8684 4.8006-7.8303 0 .0913-11.5455-9.927-19.3254-20.8362-19.3254-10.9093 0-20.9281 7.7799-20.8363 19.3254z" fill="#eac102" fill-rule="evenodd" stroke="#000" stroke-linecap="round" stroke-linejoin="round"/><path d="m681.8074 254.7869c-.0878 1.888-.048 2.0866-.5242 3.0092-.7197 1.3901-.2572 2.9709.6597 2.9351.8276-.033 2.2299-2.3191 2.2299-3.4428v-7.2617c0-.9081-.7893-1.3371-1.347-1.3371s-1.035.5963-1.035 1.6149c0 1.0184.0726 3.3003.0164 4.4824z" fill="#eac102" stroke="#000" stroke-linecap="round" stroke-linejoin="round"/><path d="m636.9491 287.5591c.9098 1.2881 1.9035 2.1727 3.6941 2.9984l-6.8098 6.026-1.153-1.0095 4.2688-8.0149z" fill="#eac102" stroke="#000" stroke-linecap="round" stroke-linejoin="round"/><path d="m634.0263 254.7869c.0878 1.888.048 2.0866.5243 3.0092.7196 1.3901.2572 2.9709-.6597 2.9351-.8277-.033-2.2299-2.3191-2.2299-3.4428v-7.2617c0-.9081.7892-1.3371 1.347-1.3371.5577 0 1.035.5963 1.035 1.6149-.0001 1.0184-.0725 3.3003-.0164 4.4824z" fill="#eac102" stroke="#000" stroke-linecap="round" stroke-linejoin="round"/><path d="m680.0884 263.744c-5.8817 2.2238-13.0093 4.4119-22.1715 4.4119s-16.2897-2.1881-22.1715-4.4119c3.3773 1.9117 11.6753 5.377 22.1715 5.377s18.7943-3.4653 22.1715-5.377z" stroke="#000" stroke-linecap="round" stroke-linejoin="round"/><path d="m678.8848 287.5591c-.9097 1.2881-1.9035 2.1727-3.6941 2.9984l6.8099 6.026 1.1529-1.0095-4.2686-8.0149z" fill="#eac102" stroke="#000" stroke-linecap="round" stroke-linejoin="round"/></g><g><path d="m262.4036 501.3805c5.1575-4.1116 8.3466-9.777 8.3466-16.0293 0-3.0149-.7794-5.876-2.0903-8.5307-1.3328-2.6985-3.6361-3.1433-2.5207-8.1317.1112-.4987.1939-.8913.1939-1.3543 0-4.2568-9.854-8.2198-24.2495-8.2198s-24.2494 3.963-24.2494 8.2198c0 .463.0819.8556.1939 1.3543 1.1154 4.9884-1.1879 5.4332-2.5207 8.1317-1.311 2.6547-2.0905 5.5158-2.0905 8.5307 0 6.2523 3.1891 11.9177 8.3467 16.0293 5.1935 4.1402 12.3825 6.7063 20.32 6.7063 7.9376 0 15.1266-2.5661 20.3201-6.7063z" fill="#eac102" fill-rule="evenodd" stroke="#000" stroke-linecap="round" stroke-linejoin="round"/><path d="m264.249 467.8253c0-3.1692-10.4826-6.478-22.1654-6.478-11.6827 0-22.1654 3.3088-22.1654 6.478 0 3.1691 10.3198 6.4782 22.1654 6.4782s22.1654-3.3091 22.1654-6.4782z" stroke="#000" stroke-linecap="round" stroke-linejoin="round"/><path d="m261.1496 469.0759c-2.8882-2.1508-9.6566-3.8873-19.066-3.8873-9.4093 0-16.1778 1.7365-19.066 3.8873 8.7137-2.2552 11.2307-2.6177 19.066-2.6177s10.3524.3625 19.066 2.6177z" fill="#eac102"/><path d="m221.2472 461.3389c.0386 4.8006-7.8195 4.8222-7.8303 0-.0117-5.123 2.3461-4.9381 2.4807 0 .0702 2.5786 2.4258 2.9284 2.3971 0-.121-12.4534 10.4475-22.2518 23.7888-22.2518 13.341 0 23.9099 9.7984 23.789 22.2518-.0293 2.9284 2.3269 2.5786 2.397 0 .1346-4.9381 2.491-5.123 2.4807 0-.0117 4.8222-7.8684 4.8006-7.8303 0 .0913-11.5455-9.927-19.3254-20.8362-19.3254-10.9093 0-20.9281 7.7799-20.8363 19.3254z" fill="#eac102" fill-rule="evenodd" stroke="#000" stroke-linecap="round" stroke-linejoin="round"/><path d="m265.974 466.2905c-.0878 1.888-.048 2.0866-.5242 3.0092-.7197 1.3901-.2572 2.9709.6597 2.9351.8276-.033 2.2299-2.3191 2.2299-3.4428v-7.2617c0-.9081-.7893-1.3371-1.347-1.3371s-1.035.5963-1.035 1.6149c0 1.0184.0726 3.3003.0164 4.4824z" fill="#eac102" stroke="#000" stroke-linecap="round" stroke-linejoin="round"/><path d="m221.1157 499.0627c.9098 1.2881 1.9035 2.1727 3.6941 2.9984l-6.8098 6.026-1.153-1.0095 4.2688-8.0149z" fill="#eac102" stroke="#000" stroke-linecap="round" stroke-linejoin="round"/><path d="m218.193 466.2905c.0878 1.888.048 2.0866.5243 3.0092.7196 1.3901.2572 2.9709-.6597 2.9351-.8277-.033-2.2299-2.3191-2.2299-3.4428v-7.2617c0-.9081.7892-1.3371 1.347-1.3371.5577 0 1.035.5963 1.035 1.6149-.0001 1.0184-.0725 3.3003-.0164 4.4824z" fill="#eac102" stroke="#000" stroke-linecap="round" stroke-linejoin="round"/><path d="m264.255 475.2476c-5.8817 2.2238-13.0093 4.4119-22.1715 4.4119s-16.2897-2.1881-22.1715-4.4119c3.3773 1.9117 11.6753 5.377 22.1715 5.377s18.7943-3.4653 22.1715-5.377z" stroke="#000" stroke-linecap="round" stroke-linejoin="round"/><path d="m263.0514 499.0627c-.9097 1.2881-1.9035 2.1727-3.6941 2.9984l6.8099 6.026 1.1529-1.0095-4.2686-8.0149z" fill="#eac102" stroke="#000" stroke-linecap="round" stroke-linejoin="round"/></g><g><path d="m296.6138 704.3564c5.1575-4.1116 8.3466-9.777 8.3466-16.0293 0-3.0149-.7794-5.876-2.0903-8.5307-1.3328-2.6985-3.6361-3.1433-2.5207-8.1317.1112-.4987.1939-.8913.1939-1.3543 0-4.2568-9.854-8.2198-24.2495-8.2198s-24.2494 3.963-24.2494 8.2198c0 .463.0819.8556.1939 1.3543 1.1154 4.9884-1.1879 5.4332-2.5207 8.1317-1.311 2.6547-2.0905 5.5158-2.0905 8.5307 0 6.2523 3.1891 11.9177 8.3467 16.0293 5.1935 4.1402 12.3825 6.7063 20.32 6.7063 7.9376 0 15.1266-2.5661 20.3201-6.7063z" fill="#eac102" fill-rule="evenodd" stroke="#000" stroke-linecap="round" stroke-linejoin="round"/><path d="m298.4591 670.8012c0-3.1692-10.4826-6.478-22.1654-6.478-11.6827 0-22.1654 3.3088-22.1654 6.478 0 3.1691 10.3198 6.4782 22.1654 6.4782s22.1654-3.3091 22.1654-6.4782z" stroke="#000" stroke-linecap="round" stroke-linejoin="round"/><path d="m295.3597 672.0518c-2.8882-2.1508-9.6566-3.8873-19.066-3.8873-9.4093 0-16.1778 1.7365-19.066 3.8873 8.7137-2.2552 11.2307-2.6177 19.066-2.6177s10.3524.3625 19.066 2.6177z" fill="#eac102"/><path d="m255.4574 664.3148c.0386 4.8006-7.8195 4.8222-7.8303 0-.0117-5.123 2.3461-4.9381 2.4807 0 .0702 2.5786 2.4258 2.9284 2.3971 0-.121-12.4534 10.4475-22.2518 23.7888-22.2518 13.341 0 23.9099 9.7984 23.789 22.2518-.0293 2.9284 2.3269 2.5786 2.397 0 .1346-4.9381 2.491-5.123 2.4807 0-.0117 4.8222-7.8684 4.8006-7.8303 0 .0913-11.5455-9.927-19.3254-20.8362-19.3254-10.9093 0-20.9281 7.7799-20.8363 19.3254z" fill="#eac102" fill-rule="evenodd" stroke="#000" stroke-linecap="round" stroke-linejoin="round"/><path d="m300.1842 669.2664c-.0878 1.888-.048 2.0866-.5242 3.0092-.7197 1.3901-.2572 2.9709.6597 2.9351.8276-.033 2.2299-2.3191 2.2299-3.4428v-7.2617c0-.9081-.7893-1.3371-1.347-1.3371s-1.035.5963-1.035 1.6149c0 1.0184.0726 3.3003.0164 4.4824z" fill="#eac102" stroke="#000" stroke-linecap="round" stroke-linejoin="round"/><path d="m255.3259 702.0386c.9098 1.2881 1.9035 2.1727 3.6941 2.9984l-6.8098 6.026-1.153-1.0095 4.2688-8.0149z" fill="#eac102" stroke="#000" stroke-linecap="round" stroke-linejoin="round"/><path d="m252.4031 669.2664c.0878 1.888.048 2.0866.5243 3.0092.7196 1.3901.2572 2.9709-.6597 2.9351-.8277-.033-2.2299-2.3191-2.2299-3.4428v-7.2617c0-.9081.7892-1.3371 1.347-1.3371.5577 0 1.035.5963 1.035 1.6149-.0001 1.0184-.0725 3.3003-.0164 4.4824z" fill="#eac102" stroke="#000" stroke-linecap="round" stroke-linejoin="round"/><path d="m298.4652 678.2235c-5.8817 2.2238-13.0093 4.4119-22.1715 4.4119s-16.2897-2.1881-22.1715-4.4119c3.3773 1.9117 11.6753 5.377 22.1715 5.377s18.7943-3.4653 22.1715-5.377z" stroke="#000" stroke-linecap="round" stroke-linejoin="round"/><path d="m297.2616 702.0386c-.9097 1.2881-1.9035 2.1727-3.6941 2.9984l6.8099 6.026 1.1529-1.0095-4.2686-8.0149z" fill="#eac102" stroke="#000" stroke-linecap="round" stroke-linejoin="round"/></g><g><path d="m470.3201 289.8769c5.1575-4.1116 8.3466-9.777 8.3466-16.0293 0-3.0149-.7794-5.876-2.0903-8.5307-1.3328-2.6985-3.6361-3.1433-2.5207-8.1317.1112-.4987.1939-.8913.1939-1.3543 0-4.2568-9.854-8.2198-24.2495-8.2198s-24.2494 3.963-24.2494 8.2198c0 .463.0819.8556.1939 1.3543 1.1154 4.9884-1.1879 5.4332-2.5207 8.1317-1.311 2.6547-2.0905 5.5158-2.0905 8.5307 0 6.2523 3.1891 11.9177 8.3467 16.0293 5.1935 4.1402 12.3825 6.7063 20.32 6.7063 7.9376 0 15.1266-2.5661 20.3201-6.7063z" fill="#eac102" fill-rule="evenodd" stroke="#000" stroke-linecap="round" stroke-linejoin="round"/><path d="m472.1655 256.3217c0-3.1692-10.4826-6.478-22.1654-6.478-11.6827 0-22.1654 3.3088-22.1654 6.478 0 3.1691 10.3198 6.4782 22.1654 6.4782s22.1654-3.3091 22.1654-6.4782z" stroke="#000" stroke-linecap="round" stroke-linejoin="round"/><path d="m469.0661 257.5723c-2.8882-2.1508-9.6566-3.8873-19.066-3.8873-9.4093 0-16.1778 1.7365-19.066 3.8873 8.7137-2.2552 11.2307-2.6177 19.066-2.6177s10.3524.3625 19.066 2.6177z" fill="#eac102"/><path d="m429.1637 249.8353c.0386 4.8006-7.8195 4.8222-7.8303 0-.0117-5.123 2.3461-4.9381 2.4807 0 .0702 2.5786 2.4258 2.9284 2.3971 0-.121-12.4534 10.4475-22.2518 23.7888-22.2518 13.341 0 23.9099 9.7984 23.789 22.2518-.0293 2.9284 2.3269 2.5786 2.397 0 .1346-4.9381 2.491-5.123 2.4807 0-.0117 4.8222-7.8684 4.8006-7.8303 0 .0913-11.5455-9.927-19.3254-20.8362-19.3254-10.9093 0-20.9281 7.7799-20.8363 19.3254z" fill="#eac102" fill-rule="evenodd" stroke="#000" stroke-linecap="round" stroke-linejoin="round"/><path d="m473.8905 254.7869c-.0878 1.888-.048 2.0866-.5242 3.0092-.7197 1.3901-.2572 2.9709.6597 2.9351.8276-.033 2.2299-2.3191 2.2299-3.4428v-7.2617c0-.9081-.7893-1.3371-1.347-1.3371s-1.035.5963-1.035 1.6149c0 1.0184.0726 3.3003.0164 4.4824z" fill="#eac102" stroke="#000" stroke-linecap="round" stroke-linejoin="round"/><path d="m429.0322 287.5591c.9098 1.2881 1.9035 2.1727 3.6941 2.9984l-6.8098 6.026-1.153-1.0095 4.2688-8.0149z" fill="#eac102" stroke="#000" stroke-linecap="round" stroke-linejoin="round"/><path d="m426.1095 254.7869c.0878 1.888.048 2.0866.5243 3.0092.7196 1.3901.2572 2.9709-.6597 2.9351-.8277-.033-2.2299-2.3191-2.2299-3.4428v-7.2617c0-.9081.7892-1.3371 1.347-1.3371.5577 0 1.035.5963 1.035 1.6149-.0001 1.0184-.0725 3.3003-.0164 4.4824z" fill="#eac102" stroke="#000" stroke-linecap="round" stroke-linejoin="round"/><path d="m472.1715 263.744c-5.8817 2.2238-13.0093 4.4119-22.1715 4.4119s-16.2897-2.1881-22.1715-4.4119c3.3773 1.9117 11.6753 5.377 22.1715 5.377s18.7943-3.4653 22.1715-5.377z" stroke="#000" stroke-linecap="round" stroke-linejoin="round"/><path d="m470.9679 287.5591c-.9097 1.2881-1.9035 2.1727-3.6941 2.9984l6.8099 6.026 1.1529-1.0095-4.2686-8.0149z" fill="#eac102" stroke="#000" stroke-linecap="round" stroke-linejoin="round"/></g><g><path d="m470.3201 805.7097c5.1575-4.1116 8.3466-9.777 8.3466-16.0293 0-3.0149-.7794-5.876-2.0903-8.5307-1.3328-2.6985-3.6361-3.1433-2.5207-8.1317.1112-.4987.1939-.8913.1939-1.3543 0-4.2568-9.854-8.2198-24.2495-8.2198s-24.2494 3.963-24.2494 8.2198c0 .463.0819.8556.1939 1.3543 1.1154 4.9884-1.1879 5.4332-2.5207 8.1317-1.311 2.6547-2.0905 5.5158-2.0905 8.5307 0 6.2523 3.1891 11.9177 8.3467 16.0293 5.1935 4.1402 12.3825 6.7063 20.32 6.7063 7.9376 0 15.1266-2.5661 20.3201-6.7063z" fill="#eac102" fill-rule="evenodd" stroke="#000" stroke-linecap="round" stroke-linejoin="round"/><path d="m472.1655 772.1545c0-3.1692-10.4826-6.478-22.1654-6.478-11.6827 0-22.1654 3.3088-22.1654 6.478 0 3.1691 10.3198 6.4782 22.1654 6.4782s22.1654-3.3091 22.1654-6.4782z" stroke="#000" stroke-linecap="round" stroke-linejoin="round"/><path d="m469.0661 773.4051c-2.8882-2.1508-9.6566-3.8873-19.066-3.8873-9.4093 0-16.1778 1.7365-19.066 3.8873 8.7137-2.2552 11.2307-2.6177 19.066-2.6177s10.3524.3625 19.066 2.6177z" fill="#eac102"/><path d="m429.1637 765.6681c.0386 4.8006-7.8195 4.8222-7.8303 0-.0117-5.123 2.3461-4.9381 2.4807 0 .0702 2.5786 2.4258 2.9284 2.3971 0-.121-12.4534 10.4475-22.2518 23.7888-22.2518 13.341 0 23.9099 9.7984 23.789 22.2518-.0293 2.9284 2.3269 2.5786 2.397 0 .1346-4.9381 2.491-5.123 2.4807 0-.0117 4.8222-7.8684 4.8006-7.8303 0 .0913-11.5455-9.927-19.3254-20.8362-19.3254-10.9093 0-20.9281 7.7799-20.8363 19.3254z" fill="#eac102" fill-rule="evenodd" stroke="#000" stroke-linecap="round" stroke-linejoin="round"/><path d="m473.8905 770.6197c-.0878 1.888-.048 2.0866-.5242 3.0092-.7197 1.3901-.2572 2.9709.6597 2.9351.8276-.033 2.2299-2.3191 2.2299-3.4428v-7.2617c0-.9081-.7893-1.3371-1.347-1.3371s-1.035.5963-1.035 1.6149c0 1.0184.0726 3.3003.0164 4.4824z" fill="#eac102" stroke="#000" stroke-linecap="round" stroke-linejoin="round"/><path d="m429.0322 803.3919c.9098 1.2881 1.9035 2.1727 3.6941 2.9984l-6.8098 6.026-1.153-1.0095 4.2688-8.0149z" fill="#eac102" stroke="#000" stroke-linecap="round" stroke-linejoin="round"/><path d="m426.1095 770.6197c.0878 1.888.048 2.0866.5243 3.0092.7196 1.3901.2572 2.9709-.6597 2.9351-.8277-.033-2.2299-2.3191-2.2299-3.4428v-7.2617c0-.9081.7892-1.3371 1.347-1.3371.5577 0 1.035.5963 1.035 1.6149-.0001 1.0184-.0725 3.3003-.0164 4.4824z" fill="#eac102" stroke="#000" stroke-linecap="round" stroke-linejoin="round"/><path d="m472.1715 779.5768c-5.8817 2.2238-13.0093 4.4119-22.1715 4.4119s-16.2897-2.1881-22.1715-4.4119c3.3773 1.9117 11.6753 5.377 22.1715 5.377s18.7943-3.4653 22.1715-5.377z" stroke="#000" stroke-linecap="round" stroke-linejoin="round"/><path d="m470.9679 803.3919c-.9097 1.2881-1.9035 2.1727-3.6941 2.9984l6.8099 6.026 1.1529-1.0095-4.2686-8.0149z" fill="#eac102" stroke="#000" stroke-linecap="round" stroke-linejoin="round"/></g><g><path d="m603.3862 704.3564c-5.1575-4.1116-8.3466-9.777-8.3466-16.0293 0-3.0149.7794-5.876 2.0903-8.5307 1.3328-2.6985 3.6361-3.1433 2.5207-8.1317-.1112-.4987-.1939-.8913-.1939-1.3543 0-4.2568 9.854-8.2198 24.2495-8.2198s24.2494 3.963 24.2494 8.2198c0 .463-.0819.8556-.1939 1.3543-1.1154 4.9884 1.1879 5.4332 2.5207 8.1317 1.311 2.6547 2.0905 5.5158 2.0905 8.5307 0 6.2523-3.1891 11.9177-8.3467 16.0293-5.1935 4.1402-12.3825 6.7063-20.32 6.7063-7.9376 0-15.1266-2.5661-20.3201-6.7063z" fill="#eac102" fill-rule="evenodd" stroke="#000" stroke-linecap="round" stroke-linejoin="round"/><path d="m601.5409 670.8012c0-3.1692 10.4826-6.478 22.1654-6.478 11.6827 0 22.1654 3.3088 22.1654 6.478 0 3.1691-10.3198 6.4782-22.1654 6.4782s-22.1654-3.3091-22.1654-6.4782z" stroke="#000" stroke-linecap="round" stroke-linejoin="round"/><path d="m604.6403 672.0518c2.8882-2.1508 9.6566-3.8873 19.066-3.8873 9.4093 0 16.1778 1.7365 19.066 3.8873-8.7137-2.2552-11.2307-2.6177-19.066-2.6177s-10.3524.3625-19.066 2.6177z" fill="#eac102"/><path d="m644.5426 664.3148c-.0386 4.8006 7.8195 4.8222 7.8303 0 .0117-5.123-2.3461-4.9381-2.4807 0-.0702 2.5786-2.4258 2.9284-2.3971 0 .121-12.4534-10.4475-22.2518-23.7888-22.2518-13.341 0-23.9099 9.7984-23.789 22.2518.0293 2.9284-2.3269 2.5786-2.397 0-.1346-4.9381-2.491-5.123-2.4807 0 .0117 4.8222 7.8684 4.8006 7.8303 0-.0913-11.5455 9.927-19.3254 20.8362-19.3254 10.9093 0 20.9281 7.7799 20.8363 19.3254z" fill="#eac102" fill-rule="evenodd" stroke="#000" stroke-linecap="round" stroke-linejoin="round"/><path d="m599.8158 669.2664c.0878 1.888.048 2.0866.5242 3.0092.7197 1.3901.2572 2.9709-.6597 2.9351-.8276-.033-2.2299-2.3191-2.2299-3.4428v-7.2617c0-.9081.7893-1.3371 1.347-1.3371s1.035.5963 1.035 1.6149c0 1.0184-.0726 3.3003-.0164 4.4824z" fill="#eac102" stroke="#000" stroke-linecap="round" stroke-linejoin="round"/><path d="m644.6741 702.0386c-.9098 1.2881-1.9035 2.1727-3.6941 2.9984l6.8098 6.026 1.153-1.0095-4.2688-8.0149z" fill="#eac102" stroke="#000" stroke-linecap="round" stroke-linejoin="round"/><path d="m647.5969 669.2664c-.0878 1.888-.048 2.0866-.5243 3.0092-.7196 1.3901-.2572 2.9709.6597 2.9351.8277-.033 2.2299-2.3191 2.2299-3.4428v-7.2617c0-.9081-.7892-1.3371-1.347-1.3371-.5577 0-1.035.5963-1.035 1.6149.0001 1.0184.0725 3.3003.0164 4.4824z" fill="#eac102" stroke="#000" stroke-linecap="round" stroke-linejoin="round"/><path d="m601.5348 678.2235c5.8817 2.2238 13.0093 4.4119 22.1715 4.4119s16.2897-2.1881 22.1715-4.4119c-3.3773 1.9117-11.6753 5.377-22.1715 5.377s-18.7943-3.4653-22.1715-5.377z" stroke="#000" stroke-linecap="round" stroke-linejoin="round"/><path d="m602.7384 702.0386c.9097 1.2881 1.9035 2.1727 3.6941 2.9984l-6.8099 6.026-1.1529-1.0095 4.2686-8.0149z" fill="#eac102" stroke="#000" stroke-linecap="round" stroke-linejoin="round"/></g></g><path d="m201.5 221.5v348.5c0 137.172 111.328 248.5 248.5 248.5s248.5-111.328 248.5-248.5v-348.5z" fill="none" stroke="#000" stroke-linecap="round" stroke-linejoin="round" stroke-width="3"/></svg>