<svg xmlns="http://www.w3.org/2000/svg" width="615" height="710"><path d="M-946.8125 89.437111h404.09793v404.09793H-946.8125z" style="fill:#0071bc;fill-opacity:1;stroke:#fff;stroke-width:28.51919556;stroke-miterlimit:4;stroke-opacity:1;stroke-dasharray:none" transform="rotate(-45 -83.633429 -922.790208)"/><path d="M-343.92738 336.09421v43.5329c-25.3823.95024-50.56629 3.69335-74.86289 8.3638l-11.99736-36.60877-2.05668-6.37569-6.51268 2.12523 2.05667 6.37569-6.23868 2.05667-2.05668-6.37569-6.51268 2.12523 2.05667 6.37569-6.23869 2.05667-2.12511-6.44424-6.51291 2.19378 2.12534 6.37569-6.17002 1.98812-2.12534-6.37569-6.58135 2.12523 2.12534 6.58135 16.31627 48.74315c91.34347-25.98281 187.17827-24.83871 278.54192 0l15.2196-48.74304 2.12512-6.58135-6.58135-2.12523-2.05667 6.37569-6.23847-1.98812 2.12512-6.37569-6.51269-2.19378-2.12534 6.44424-6.23846-2.05667 2.12512-6.37569-6.51269-2.12523-2.12534 6.37569-6.23846-2.05667 2.05667-6.37569-6.5129-2.12523-2.05668 6.37569-12.13426 37.15722c-24.16014-4.4715-49.16994-7.4248-74.3831-8.63803v-43.80712h-6.85558v6.71846h-6.58135v-6.71846h-6.85557v6.71846h-6.58136v-6.71846h-6.85557v6.71846h-6.51269v-6.71846h-6.92424v-.00011zm23.58318 25.98263c3.28848 0 5.96424 2.6674 5.96424 5.96435v10.28336H-326.24v-10.28336c0-3.29695 2.6071-5.96435 5.8958-5.96435zm-125.66281 14.67093c2.7521-.31398 5.41097 1.30273 6.30713 4.04479 2.56563 7.84833.64541 1.98917 3.22223 9.87203l-11.31181 3.70201-3.22201-9.87203c-1.0245-3.13378.7132-6.45082 3.83912-7.47258.39071-.12768.77221-.22936 1.16534-.27422zm249.81717 0c.7709-.0658 1.61792.0197 2.39956.27422 3.12571 1.02176 4.79474 4.3388 3.77046 7.47258l-3.22201 9.87203-11.31181-3.70201c2.57682-7.88286.6566-2.0237 3.22223-9.87203.76826-2.35033 2.82867-3.84744 5.14157-4.04479zm-124.08592 30.3702c-44.24599.1404-88.55451 6.79121-134.43772 19.46983l6.44424 17.13894c82.87678-25.73357 173.00292-24.81214 255.91853 0l6.44424-17.13894c-45.88059-13.2403-90.12307-19.61026-134.36929-19.46983z" style="fill:#b79c56;fill-opacity:1;stroke:none" transform="translate(628.015548 -329.41676)"/><path d="m-326.97908 432.73889-293.53645 293.53666c120.54252-91.75989 189.05067-152.10199 293.53645-293.53666zm12.99576 0c104.48577 141.43467 172.92526 201.77677 293.467774 293.53666L-313.98332 432.73889zm-306.53221 306.46354 293.53645 293.53687c-104.48578-141.43462-172.99393-201.77698-293.53645-293.53687zm599.999984 0C-141.05806 830.96232-209.49755 891.30468-313.98332 1032.7393l293.467774-293.53687z" style="fill:#b79c56;fill-opacity:1;stroke:none" transform="translate(628.015548 -329.41676)"/><path d="M850.72768 935.5625c-2.34021.86088-1.74461 2.93301-.71875 4.65625l-15.375 68.21875h88.9375l-15.34375-68.21875c1.02586-1.72324 1.62146-3.79537-.71875-4.65625-16.79733-3.68793-39.99957-4.40453-56.78125 0z" style="fill:#ebc512;fill-opacity:1;stroke:none" transform="translate(-1621.061552 -1661.35266) scale(2.1937842)"/><path d="M879.10267 972.98773c-2.38666 0-4.32142 1.93967-4.32142 4.33238v18.08168h8.64285c-.00007-6.01878 0-12.08932 0-18.08168 0-2.39271-1.93476-4.33238-4.32143-4.33238zM871.77455 937.8125c-.71007 0-1.28125.64977-1.28125 1.46875v6.1875h2.5625c-.00001-2.06011 0-4.13644 0-6.1875 0-.81898-.57117-1.46875-1.28125-1.46875zm4.875 0c-.71007 0-1.28125.64977-1.28125 1.46875v6.1875h2.5625c-.00001-2.06011 0-4.13644 0-6.1875 0-.81898-.57117-1.46875-1.28125-1.46875zm4.90625 0c-.71007 0-1.3125.64977-1.3125 1.46875v6.1875h2.59375c-.00001-2.06011 0-4.13644 0-6.1875 0-.81898-.57117-1.46875-1.28125-1.46875zm4.875 0c-.71007 0-1.28125.64977-1.28125 1.46875v6.1875h2.5625c-.00001-2.06011 0-4.13644 0-6.1875 0-.81898-.57117-1.46875-1.28125-1.46875z" style="fill:#b79c56;fill-opacity:1;fill-rule:evenodd;stroke:none" transform="translate(-1621.061552 -1661.35266) scale(2.1937842)"/><path d="M908.30357 915.66575c-6.92443-12.51657-8.08453-21.10592-.71215-37.06455-17.14552 9.01572-14.56314 31.16414.71215 37.06455z" style="fill:#eac102;fill-opacity:1;stroke:none" transform="translate(-1622.137652 -1661.35266) scale(2.1937842)"/><path d="M914.09375 875.03125c-30.40203 17.83248-17.74542 37.50053 9.59375 51.125.91409-.0834 1.246-.65962.90625-1.8125-25.81458-13.12923-36.54377-28.68635-10.5-49.3125z" style="fill:#eac102;fill-opacity:1;stroke:none" transform="translate(-1622.137652 -1661.35266) scale(2.1937842)"/><path d="M909.21875 915.25c.31328.22476.4152.46626.78125.6875 3.08649-7.4742-1.14343-7.51068-3.21875-12.15625-.0374.11212-.056.2312-.0937.34375.36503 1.14755.67752 2.29773.90625 3.40625.28778 1.39469.50158 2.76145.75 4.09375.23061 1.23676.51499 2.44257.875 3.625z" style="fill:#eac102;fill-opacity:1;stroke:none" transform="matrix(.10948848 2.47813724 -2.37139363 .08951662 2444.465641 -2070.520331)"/><path d="M909.21875 915.25c-.36001-1.18243-.64439-2.38824-.875-3.625-.24842-1.3323-.46222-2.69906-.75-4.09375-.22873-1.10852-.54122-2.2587-.90625-3.40625-1.24054 3.69952-2.36581 7.61154 2.53125 11.125z" style="fill:#b79c56;fill-opacity:1;stroke:none" transform="matrix(.10948848 2.47813724 -2.37139363 .08951662 2444.465641 -2070.520331)"/><path d="M909.21875 915.25c.31328.22476.4152.46626.78125.6875 3.08649-7.4742-1.14343-7.51068-3.21875-12.15625-.0374.11212-.056.2312-.0937.34375.36503 1.14755.67752 2.29773.90625 3.40625.28778 1.39469.50158 2.76145.75 4.09375.23061 1.23676.51499 2.44257.875 3.625z" style="fill:#eac102;fill-opacity:1;stroke:none" transform="matrix(2.12871454 1.40474553 -1.77475872 1.5758931 56.51118 -2454.05234)"/><path d="M909.21875 915.25c-.36001-1.18243-.64439-2.38824-.875-3.625-.24842-1.3323-.46222-2.69906-.75-4.09375-.22873-1.10852-.54122-2.2587-.90625-3.40625-1.24054 3.69952-2.36581 7.61154 2.53125 11.125z" style="fill:#b79c56;fill-opacity:1;stroke:none" transform="matrix(2.12871454 1.40474553 -1.77475872 1.5758931 56.51118 -2454.05234)"/><path d="M909.21875 915.25c.31328.22476.4152.46626.78125.6875 3.08649-7.4742-1.14343-7.51068-3.21875-12.15625-.0374.11212-.056.2312-.0937.34375.36503 1.14755.67752 2.29773.90625 3.40625.28778 1.39469.50158 2.76145.75 4.09375.23061 1.23676.51499 2.44257.875 3.625z" style="fill:#eac102;fill-opacity:1;stroke:none" transform="matrix(2.49622543 .5103352 -.86722209 2.08062563 -1114.899907 -2094.981617)"/><path d="M909.21875 915.25c-.36001-1.18243-.64439-2.38824-.875-3.625-.24842-1.3323-.46222-2.69906-.75-4.09375-.22873-1.10852-.54122-2.2587-.90625-3.40625-1.24054 3.69952-2.36581 7.61154 2.53125 11.125z" style="fill:#b79c56;fill-opacity:1;stroke:none" transform="matrix(2.49622543 .5103352 -.86722209 2.08062563 -1114.899907 -2094.981617)"/><path d="M909.21875 915.25c.31328.22476.4152.46626.78125.6875 3.08649-7.4742-1.14343-7.51068-3.21875-12.15625-.0374.11212-.056.2312-.0937.34375.36503 1.14755.67752 2.29773.90625 3.40625.28778 1.39469.50158 2.76145.75 4.09375.23061 1.23676.51499 2.44257.875 3.625z" style="fill:#eac102;fill-opacity:1;stroke:none" transform="matrix(-.03071756 2.43553637 -2.35164233 -.43774397 2541.68231 -1540.87358)"/><path d="M909.21875 915.25c-.36001-1.18243-.64439-2.38824-.875-3.625-.24842-1.3323-.46222-2.69906-.75-4.09375-.22873-1.10852-.54122-2.2587-.90625-3.40625-1.24054 3.69952-2.36581 7.61154 2.53125 11.125z" style="fill:#b79c56;fill-opacity:1;stroke:none" transform="matrix(-.03071756 2.43553637 -2.35164233 -.43774397 2541.68231 -1540.87358)"/><path d="M909.21875 915.25c.31328.22476.4152.46626.78125.6875 3.08649-7.4742-1.14343-7.51068-3.21875-12.15625-.0374.11212-.056.2312-.0937.34375.36503 1.14755.67752 2.29773.90625 3.40625.28778 1.39469.50158 2.76145.75 4.09375.23061 1.23676.51499 2.44257.875 3.625z" style="fill:#eac102;fill-opacity:1;stroke:none" transform="matrix(2.695733 -.06496422 -.3820108 2.36702054 -1748.006158 -1822.09407)"/><path d="M909.21875 915.25c-.36001-1.18243-.64439-2.38824-.875-3.625-.24842-1.3323-.46222-2.69906-.75-4.09375-.22873-1.10852-.54122-2.2587-.90625-3.40625-1.24054 3.69952-2.36581 7.61154 2.53125 11.125z" style="fill:#b79c56;fill-opacity:1;stroke:none" transform="matrix(2.695733 -.06496422 -.3820108 2.36702054 -1748.006158 -1822.09407)"/><path d="M909.21875 915.25c.31328.22476.4152.46626.78125.6875 3.08649-7.4742-1.14343-7.51068-3.21875-12.15625-.0374.11212-.056.2312-.0937.34375.36503 1.14755.67752 2.29773.90625 3.40625.28778 1.39469.50158 2.76145.75 4.09375.23061 1.23676.51499 2.44257.875 3.625z" style="fill:#eac102;fill-opacity:1;stroke:none" transform="matrix(.34761542 2.65504115 -2.12079922 -.03967783 1978.281453 -2090.971972)"/><path d="M909.21875 915.25c-.36001-1.18243-.64439-2.38824-.875-3.625-.24842-1.3323-.46222-2.69906-.75-4.09375-.22873-1.10852-.54122-2.2587-.90625-3.40625-1.24054 3.69952-2.36581 7.61154 2.53125 11.125z" style="fill:#b79c56;fill-opacity:1;stroke:none" transform="matrix(.34761542 2.65504115 -2.12079922 -.03967783 1978.281453 -2090.971972)"/><path d="M909.21875 915.25c.31328.22476.4152.46626.78125.6875 3.08649-7.4742-1.14343-7.51068-3.21875-12.15625-.0374.11212-.056.2312-.0937.34375.36503 1.14755.67752 2.29773.90625 3.40625.28778 1.39469.50158 2.76145.75 4.09375.23061 1.23676.51499 2.44257.875 3.625z" style="fill:#eac102;fill-opacity:1;stroke:none" transform="matrix(2.66170872 -.33832222 -.08386576 2.45398127 -1995.444015 -1638.857217)"/><path d="M909.21875 915.25c-.36001-1.18243-.64439-2.38824-.875-3.625-.24842-1.3323-.46222-2.69906-.75-4.09375-.22873-1.10852-.54122-2.2587-.90625-3.40625-1.24054 3.69952-2.36581 7.61154 2.53125 11.125z" style="fill:#b79c56;fill-opacity:1;stroke:none" transform="matrix(2.66170872 -.33832222 -.08386576 2.45398127 -1995.444015 -1638.857217)"/><path d="M909.21875 915.25c.31328.22476.4152.46626.78125.6875 3.08649-7.4742-1.14343-7.51068-3.21875-12.15625-.0374.11212-.056.2312-.0937.34375.36503 1.14755.67752 2.29773.90625 3.40625.28778 1.39469.50158 2.76145.75 4.09375.23061 1.23676.51499 2.44257.875 3.625z" style="fill:#eac102;fill-opacity:1;stroke:none" transform="matrix(.94855986 2.03575906 -2.04037656 .53080458 1352.770396 -2035.106446)"/><path d="M909.21875 915.25c-.36001-1.18243-.64439-2.38824-.875-3.625-.24842-1.3323-.46222-2.69906-.75-4.09375-.22873-1.10852-.54122-2.2587-.90625-3.40625-1.24054 3.69952-2.36581 7.61154 2.53125 11.125z" style="fill:#b79c56;fill-opacity:1;stroke:none" transform="matrix(.94855986 2.03575906 -2.04037656 .53080458 1352.770396 -2035.106446)"/><path d="M909.21875 915.25c.31328.22476.4152.46626.78125.6875 3.08649-7.4742-1.14343-7.51068-3.21875-12.15625-.0374.11212-.056.2312-.0937.34375.36503 1.14755.67752 2.29773.90625 3.40625.28778 1.39469.50158 2.76145.75 4.09375.23061 1.23676.51499 2.44257.875 3.625z" style="fill:#eac102;fill-opacity:1;stroke:none" transform="matrix(2.67362623 -.88763931 .366456 2.61899684 -2420.449623 -1273.331226)"/><path d="M909.21875 915.25c-.36001-1.18243-.64439-2.38824-.875-3.625-.24842-1.3323-.46222-2.69906-.75-4.09375-.22873-1.10852-.54122-2.2587-.90625-3.40625-1.24054 3.69952-2.36581 7.61154 2.53125 11.125z" style="fill:#b79c56;fill-opacity:1;stroke:none" transform="matrix(2.67362623 -.88763931 .366456 2.61899684 -2420.449623 -1273.331226)"/><path d="M909.21875 915.25c.31328.22476.4152.46626.78125.6875 3.08649-7.4742-1.14343-7.51068-3.21875-12.15625-.0374.11212-.056.2312-.0937.34375.36503 1.14755.67752 2.29773.90625 3.40625.28778 1.39469.50158 2.76145.75 4.09375.23061 1.23676.51499 2.44257.875 3.625z" style="fill:#eac102;fill-opacity:1;stroke:none" transform="matrix(1.40678404 1.76754994 -1.61883526 1.23603846 550.867858 -2420.179565)"/><path d="M909.21875 915.25c-.36001-1.18243-.64439-2.38824-.875-3.625-.24842-1.3323-.46222-2.69906-.75-4.09375-.22873-1.10852-.54122-2.2587-.90625-3.40625-1.24054 3.69952-2.36581 7.61154 2.53125 11.125z" style="fill:#b79c56;fill-opacity:1;stroke:none" transform="matrix(1.40678404 1.76754994 -1.61883526 1.23603846 550.867858 -2420.179565)"/><path d="M909.21875 915.25c.31328.22476.4152.46626.78125.6875 3.08649-7.4742-1.14343-7.51068-3.21875-12.15625-.0374.11212-.056.2312-.0937.34375.36503 1.14755.67752 2.29773.90625 3.40625.28778 1.39469.50158 2.76145.75 4.09375.23061 1.23676.51499 2.44257.875 3.625z" style="fill:#b79c56;fill-opacity:1;stroke:none" transform="matrix(-.90636578 2.61367099 2.37246902 .7695979 -993.166998 -2752.18193)"/><path d="M909.21875 915.25c-.36001-1.18243-.64439-2.38824-.875-3.625-.24842-1.3323-.46222-2.69906-.75-4.09375-.22873-1.10852-.54122-2.2587-.90625-3.40625-1.24054 3.69952-2.36581 7.61154 2.53125 11.125z" style="fill:#eac102;fill-opacity:1;stroke:none" transform="matrix(-.90636578 2.61367099 2.37246902 .7695979 -993.166998 -2752.18193)"/><path d="M909.21875 915.25c.31328.22476.4152.46626.78125.6875 3.08649-7.4742-1.14343-7.51068-3.21875-12.15625-.0374.11212-.056.2312-.0937.34375.36503 1.14755.67752 2.29773.90625 3.40625.28778 1.39469.50158 2.76145.75 4.09375.23061 1.23676.51499 2.44257.875 3.625z" style="fill:#eac102;fill-opacity:1;stroke:none" transform="matrix(2.5428903 1.03251096 -1.0298395 1.9946475 -1011.185359 -2429.765086)"/><path d="M909.21875 915.25c-.36001-1.18243-.64439-2.38824-.875-3.625-.24842-1.3323-.46222-2.69906-.75-4.09375-.22873-1.10852-.54122-2.2587-.90625-3.40625-1.24054 3.69952-2.36581 7.61154 2.53125 11.125z" style="fill:#b79c56;fill-opacity:1;stroke:none" transform="matrix(2.5428903 1.03251096 -1.0298395 1.9946475 -1011.185359 -2429.765086)"/><path d="M909.21875 915.25c.31328.22476.4152.46626.78125.6875 3.08649-7.4742-1.14343-7.51068-3.21875-12.15625-.0374.11212-.056.2312-.0937.34375.36503 1.14755.67752 2.29773.90625 3.40625.28778 1.39469.50158 2.76145.75 4.09375.23061 1.23676.51499 2.44257.875 3.625z" style="fill:#b79c56;fill-opacity:1;stroke:none" transform="matrix(.07177873 3.09301722 2.49152437 -.12848608 -1982.62558 -2356.847297)"/><path d="M909.21875 915.25c-.36001-1.18243-.64439-2.38824-.875-3.625-.24842-1.3323-.46222-2.69906-.75-4.09375-.22873-1.10852-.54122-2.2587-.90625-3.40625-1.24054 3.69952-2.36581 7.61154 2.53125 11.125z" style="fill:#eac102;fill-opacity:1;stroke:none" transform="matrix(.07177873 3.09301722 2.49152437 -.12848608 -1982.62558 -2356.847297)"/><path d="M909.21875 915.25c.31328.22476.4152.46626.78125.6875 3.08649-7.4742-1.14343-7.51068-3.21875-12.15625-.0374.11212-.056.2312-.0937.34375.36503 1.14755.67752 2.29773.90625 3.40625.28778 1.39469.50158 2.76145.75 4.09375.23061 1.23676.51499 2.44257.875 3.625z" style="fill:#b79c56;fill-opacity:1;stroke:none" transform="matrix(.99635156 2.53901278 2.190774 -.80053452 -2538.717736 -1229.871812)"/><path d="M909.21875 915.25c-.36001-1.18243-.64439-2.38824-.875-3.625-.24842-1.3323-.46222-2.69906-.75-4.09375-.22873-1.10852-.54122-2.2587-.90625-3.40625-1.24054 3.69952-2.36581 7.61154 2.53125 11.125z" style="fill:#eac102;fill-opacity:1;stroke:none" transform="matrix(.99635156 2.53901278 2.190774 -.80053452 -2538.717736 -1229.871812)"/><path d="M909.21875 915.25c.31328.22476.4152.46626.78125.6875 3.08649-7.4742-1.14343-7.51068-3.21875-12.15625-.0374.11212-.056.2312-.0937.34375.36503 1.14755.67752 2.29773.90625 3.40625.28778 1.39469.50158 2.76145.75 4.09375.23061 1.23676.51499 2.44257.875 3.625z" style="fill:#eac102;fill-opacity:1;stroke:none" transform="matrix(2.83046864 .32145834 -.32725122 2.17527983 -1901.91694 -1935.92713)"/><path d="M909.21875 915.25c-.36001-1.18243-.64439-2.38824-.875-3.625-.24842-1.3323-.46222-2.69906-.75-4.09375-.22873-1.10852-.54122-2.2587-.90625-3.40625-1.24054 3.69952-2.36581 7.61154 2.53125 11.125z" style="fill:#b79c56;fill-opacity:1;stroke:none" transform="matrix(2.83046864 .32145834 -.32725122 2.17527983 -1901.91694 -1935.92713)"/><path d="M908.30357 915.66575c-6.92443-12.51657-8.08453-21.10592-.71215-37.06455-17.14552 9.01572-14.56314 31.16414.71215 37.06455z" style="fill:#eac102;fill-opacity:1;stroke:none" transform="matrix(-2.1937842 0 0 2.1937842 2237.137678 -1661.35266)"/><path d="M914.09375 875.03125c-30.40203 17.83248-17.74542 37.50053 9.59375 51.125.91409-.0834 1.246-.65962.90625-1.8125-25.81458-13.12923-36.54377-28.68635-10.5-49.3125z" style="fill:#eac102;fill-opacity:1;stroke:none" transform="matrix(-2.1937842 0 0 2.1937842 2237.137678 -1661.35266)"/><path d="M909.21875 915.25c.31328.22476.4152.46626.78125.6875 3.08649-7.4742-1.14343-7.51068-3.21875-12.15625-.0374.11212-.056.2312-.0937.34375.36503 1.14755.67752 2.29773.90625 3.40625.28778 1.39469.50158 2.76145.75 4.09375.23061 1.23676.51499 2.44257.875 3.625z" style="fill:#eac102;fill-opacity:1;stroke:none" transform="matrix(-.10948848 2.47813724 2.37139363 .08951662 -1829.465615 -2070.520331)"/><path d="M909.21875 915.25c-.36001-1.18243-.64439-2.38824-.875-3.625-.24842-1.3323-.46222-2.69906-.75-4.09375-.22873-1.10852-.54122-2.2587-.90625-3.40625-1.24054 3.69952-2.36581 7.61154 2.53125 11.125z" style="fill:#b79c56;fill-opacity:1;stroke:none" transform="matrix(-.10948848 2.47813724 2.37139363 .08951662 -1829.465615 -2070.520331)"/><path d="M909.21875 915.25c.31328.22476.4152.46626.78125.6875 3.08649-7.4742-1.14343-7.51068-3.21875-12.15625-.0374.11212-.056.2312-.0937.34375.36503 1.14755.67752 2.29773.90625 3.40625.28778 1.39469.50158 2.76145.75 4.09375.23061 1.23676.51499 2.44257.875 3.625z" style="fill:#eac102;fill-opacity:1;stroke:none" transform="matrix(-2.12871454 1.40474553 1.77475872 1.5758931 558.488845 -2454.05234)"/><path d="M909.21875 915.25c-.36001-1.18243-.64439-2.38824-.875-3.625-.24842-1.3323-.46222-2.69906-.75-4.09375-.22873-1.10852-.54122-2.2587-.90625-3.40625-1.24054 3.69952-2.36581 7.61154 2.53125 11.125z" style="fill:#b79c56;fill-opacity:1;stroke:none" transform="matrix(-2.12871454 1.40474553 1.77475872 1.5758931 558.488845 -2454.05234)"/><path d="M909.21875 915.25c.31328.22476.4152.46626.78125.6875 3.08649-7.4742-1.14343-7.51068-3.21875-12.15625-.0374.11212-.056.2312-.0937.34375.36503 1.14755.67752 2.29773.90625 3.40625.28778 1.39469.50158 2.76145.75 4.09375.23061 1.23676.51499 2.44257.875 3.625z" style="fill:#eac102;fill-opacity:1;stroke:none" transform="matrix(-2.49622543 .5103352 .86722209 2.08062563 1729.899933 -2094.981617)"/><path d="M909.21875 915.25c-.36001-1.18243-.64439-2.38824-.875-3.625-.24842-1.3323-.46222-2.69906-.75-4.09375-.22873-1.10852-.54122-2.2587-.90625-3.40625-1.24054 3.69952-2.36581 7.61154 2.53125 11.125z" style="fill:#b79c56;fill-opacity:1;stroke:none" transform="matrix(-2.49622543 .5103352 .86722209 2.08062563 1729.899933 -2094.981617)"/><path d="M909.21875 915.25c.31328.22476.4152.46626.78125.6875 3.08649-7.4742-1.14343-7.51068-3.21875-12.15625-.0374.11212-.056.2312-.0937.34375.36503 1.14755.67752 2.29773.90625 3.40625.28778 1.39469.50158 2.76145.75 4.09375.23061 1.23676.51499 2.44257.875 3.625z" style="fill:#eac102;fill-opacity:1;stroke:none" transform="matrix(.03071756 2.43553637 2.35164233 -.43774397 -1926.682284 -1540.87358)"/><path d="M909.21875 915.25c-.36001-1.18243-.64439-2.38824-.875-3.625-.24842-1.3323-.46222-2.69906-.75-4.09375-.22873-1.10852-.54122-2.2587-.90625-3.40625-1.24054 3.69952-2.36581 7.61154 2.53125 11.125z" style="fill:#b79c56;fill-opacity:1;stroke:none" transform="matrix(.03071756 2.43553637 2.35164233 -.43774397 -1926.682284 -1540.87358)"/><path d="M909.21875 915.25c.31328.22476.4152.46626.78125.6875 3.08649-7.4742-1.14343-7.51068-3.21875-12.15625-.0374.11212-.056.2312-.0937.34375.36503 1.14755.67752 2.29773.90625 3.40625.28778 1.39469.50158 2.76145.75 4.09375.23061 1.23676.51499 2.44257.875 3.625z" style="fill:#eac102;fill-opacity:1;stroke:none" transform="matrix(-2.695733 -.06496422 .3820108 2.36702054 2363.006184 -1822.09407)"/><path d="M909.21875 915.25c-.36001-1.18243-.64439-2.38824-.875-3.625-.24842-1.3323-.46222-2.69906-.75-4.09375-.22873-1.10852-.54122-2.2587-.90625-3.40625-1.24054 3.69952-2.36581 7.61154 2.53125 11.125z" style="fill:#b79c56;fill-opacity:1;stroke:none" transform="matrix(-2.695733 -.06496422 .3820108 2.36702054 2363.006184 -1822.09407)"/><path d="M909.21875 915.25c.31328.22476.4152.46626.78125.6875 3.08649-7.4742-1.14343-7.51068-3.21875-12.15625-.0374.11212-.056.2312-.0937.34375.36503 1.14755.67752 2.29773.90625 3.40625.28778 1.39469.50158 2.76145.75 4.09375.23061 1.23676.51499 2.44257.875 3.625z" style="fill:#eac102;fill-opacity:1;stroke:none" transform="matrix(-.34761542 2.65504115 2.12079922 -.03967783 -1363.281427 -2090.971972)"/><path d="M909.21875 915.25c-.36001-1.18243-.64439-2.38824-.875-3.625-.24842-1.3323-.46222-2.69906-.75-4.09375-.22873-1.10852-.54122-2.2587-.90625-3.40625-1.24054 3.69952-2.36581 7.61154 2.53125 11.125z" style="fill:#b79c56;fill-opacity:1;stroke:none" transform="matrix(-.34761542 2.65504115 2.12079922 -.03967783 -1363.281427 -2090.971972)"/><path d="M909.21875 915.25c.31328.22476.4152.46626.78125.6875 3.08649-7.4742-1.14343-7.51068-3.21875-12.15625-.0374.11212-.056.2312-.0937.34375.36503 1.14755.67752 2.29773.90625 3.40625.28778 1.39469.50158 2.76145.75 4.09375.23061 1.23676.51499 2.44257.875 3.625z" style="fill:#eac102;fill-opacity:1;stroke:none" transform="matrix(-2.66170872 -.33832222 .08386576 2.45398127 2610.44404 -1638.857217)"/><path d="M909.21875 915.25c-.36001-1.18243-.64439-2.38824-.875-3.625-.24842-1.3323-.46222-2.69906-.75-4.09375-.22873-1.10852-.54122-2.2587-.90625-3.40625-1.24054 3.69952-2.36581 7.61154 2.53125 11.125z" style="fill:#b79c56;fill-opacity:1;stroke:none" transform="matrix(-2.66170872 -.33832222 .08386576 2.45398127 2610.44404 -1638.857217)"/><path d="M909.21875 915.25c.31328.22476.4152.46626.78125.6875 3.08649-7.4742-1.14343-7.51068-3.21875-12.15625-.0374.11212-.056.2312-.0937.34375.36503 1.14755.67752 2.29773.90625 3.40625.28778 1.39469.50158 2.76145.75 4.09375.23061 1.23676.51499 2.44257.875 3.625z" style="fill:#eac102;fill-opacity:1;stroke:none" transform="matrix(-.94855986 2.03575906 2.04037656 .53080458 -737.77037 -2035.106446)"/><path d="M909.21875 915.25c-.36001-1.18243-.64439-2.38824-.875-3.625-.24842-1.3323-.46222-2.69906-.75-4.09375-.22873-1.10852-.54122-2.2587-.90625-3.40625-1.24054 3.69952-2.36581 7.61154 2.53125 11.125z" style="fill:#b79c56;fill-opacity:1;stroke:none" transform="matrix(-.94855986 2.03575906 2.04037656 .53080458 -737.77037 -2035.106446)"/><path d="M909.21875 915.25c.31328.22476.4152.46626.78125.6875 3.08649-7.4742-1.14343-7.51068-3.21875-12.15625-.0374.11212-.056.2312-.0937.34375.36503 1.14755.67752 2.29773.90625 3.40625.28778 1.39469.50158 2.76145.75 4.09375.23061 1.23676.51499 2.44257.875 3.625z" style="fill:#eac102;fill-opacity:1;stroke:none" transform="matrix(-2.67362623 -.88763931 -.366456 2.61899684 3035.44965 -1273.331226)"/><path d="M909.21875 915.25c-.36001-1.18243-.64439-2.38824-.875-3.625-.24842-1.3323-.46222-2.69906-.75-4.09375-.22873-1.10852-.54122-2.2587-.90625-3.40625-1.24054 3.69952-2.36581 7.61154 2.53125 11.125z" style="fill:#b79c56;fill-opacity:1;stroke:none" transform="matrix(-2.67362623 -.88763931 -.366456 2.61899684 3035.44965 -1273.331226)"/><path d="M909.21875 915.25c.31328.22476.4152.46626.78125.6875 3.08649-7.4742-1.14343-7.51068-3.21875-12.15625-.0374.11212-.056.2312-.0937.34375.36503 1.14755.67752 2.29773.90625 3.40625.28778 1.39469.50158 2.76145.75 4.09375.23061 1.23676.51499 2.44257.875 3.625z" style="fill:#eac102;fill-opacity:1;stroke:none" transform="matrix(-1.40678404 1.76754994 1.61883526 1.23603846 64.132168 -2420.179565)"/><path d="M909.21875 915.25c-.36001-1.18243-.64439-2.38824-.875-3.625-.24842-1.3323-.46222-2.69906-.75-4.09375-.22873-1.10852-.54122-2.2587-.90625-3.40625-1.24054 3.69952-2.36581 7.61154 2.53125 11.125z" style="fill:#b79c56;fill-opacity:1;stroke:none" transform="matrix(-1.40678404 1.76754994 1.61883526 1.23603846 64.132168 -2420.179565)"/><path d="M909.21875 915.25c.31328.22476.4152.46626.78125.6875 3.08649-7.4742-1.14343-7.51068-3.21875-12.15625-.0374.11212-.056.2312-.0937.34375.36503 1.14755.67752 2.29773.90625 3.40625.28778 1.39469.50158 2.76145.75 4.09375.23061 1.23676.51499 2.44257.875 3.625z" style="fill:#b79c56;fill-opacity:1;stroke:none" transform="matrix(.90636578 2.61367099 -2.37246902 .7695979 1608.167023 -2752.18193)"/><path d="M909.21875 915.25c-.36001-1.18243-.64439-2.38824-.875-3.625-.24842-1.3323-.46222-2.69906-.75-4.09375-.22873-1.10852-.54122-2.2587-.90625-3.40625-1.24054 3.69952-2.36581 7.61154 2.53125 11.125z" style="fill:#eac102;fill-opacity:1;stroke:none" transform="matrix(.90636578 2.61367099 -2.37246902 .7695979 1608.167023 -2752.18193)"/><path d="M909.21875 915.25c.31328.22476.4152.46626.78125.6875 3.08649-7.4742-1.14343-7.51068-3.21875-12.15625-.0374.11212-.056.2312-.0937.34375.36503 1.14755.67752 2.29773.90625 3.40625.28778 1.39469.50158 2.76145.75 4.09375.23061 1.23676.51499 2.44257.875 3.625z" style="fill:#eac102;fill-opacity:1;stroke:none" transform="matrix(-2.5428903 1.03251096 1.0298395 1.9946475 1626.185385 -2429.765086)"/><path d="M909.21875 915.25c-.36001-1.18243-.64439-2.38824-.875-3.625-.24842-1.3323-.46222-2.69906-.75-4.09375-.22873-1.10852-.54122-2.2587-.90625-3.40625-1.24054 3.69952-2.36581 7.61154 2.53125 11.125z" style="fill:#b79c56;fill-opacity:1;stroke:none" transform="matrix(-2.5428903 1.03251096 1.0298395 1.9946475 1626.185385 -2429.765086)"/><path d="M909.21875 915.25c.31328.22476.4152.46626.78125.6875 3.08649-7.4742-1.14343-7.51068-3.21875-12.15625-.0374.11212-.056.2312-.0937.34375.36503 1.14755.67752 2.29773.90625 3.40625.28778 1.39469.50158 2.76145.75 4.09375.23061 1.23676.51499 2.44257.875 3.625z" style="fill:#b79c56;fill-opacity:1;stroke:none" transform="matrix(-.07177873 3.09301722 -2.49152437 -.12848608 2597.625606 -2356.847297)"/><path d="M909.21875 915.25c-.36001-1.18243-.64439-2.38824-.875-3.625-.24842-1.3323-.46222-2.69906-.75-4.09375-.22873-1.10852-.54122-2.2587-.90625-3.40625-1.24054 3.69952-2.36581 7.61154 2.53125 11.125z" style="fill:#eac102;fill-opacity:1;stroke:none" transform="matrix(-.07177873 3.09301722 -2.49152437 -.12848608 2597.625606 -2356.847297)"/><path d="M909.21875 915.25c.31328.22476.4152.46626.78125.6875 3.08649-7.4742-1.14343-7.51068-3.21875-12.15625-.0374.11212-.056.2312-.0937.34375.36503 1.14755.67752 2.29773.90625 3.40625.28778 1.39469.50158 2.76145.75 4.09375.23061 1.23676.51499 2.44257.875 3.625z" style="fill:#b79c56;fill-opacity:1;stroke:none" transform="matrix(-.99635156 2.53901278 -2.190774 -.80053452 3153.717762 -1229.871812)"/><path d="M909.21875 915.25c-.36001-1.18243-.64439-2.38824-.875-3.625-.24842-1.3323-.46222-2.69906-.75-4.09375-.22873-1.10852-.54122-2.2587-.90625-3.40625-1.24054 3.69952-2.36581 7.61154 2.53125 11.125z" style="fill:#eac102;fill-opacity:1;stroke:none" transform="matrix(-.99635156 2.53901278 -2.190774 -.80053452 3153.717762 -1229.871812)"/><path d="M909.21875 915.25c.31328.22476.4152.46626.78125.6875 3.08649-7.4742-1.14343-7.51068-3.21875-12.15625-.0374.11212-.056.2312-.0937.34375.36503 1.14755.67752 2.29773.90625 3.40625.28778 1.39469.50158 2.76145.75 4.09375.23061 1.23676.51499 2.44257.875 3.625z" style="fill:#eac102;fill-opacity:1;stroke:none" transform="matrix(-2.83046864 .32145834 .32725122 2.17527983 2516.916966 -1935.92713)"/><path d="M909.21875 915.25c-.36001-1.18243-.64439-2.38824-.875-3.625-.24842-1.3323-.46222-2.69906-.75-4.09375-.22873-1.10852-.54122-2.2587-.90625-3.40625-1.24054 3.69952-2.36581 7.61154 2.53125 11.125z" style="fill:#b79c56;fill-opacity:1;stroke:none" transform="matrix(-2.83046864 .32145834 .32725122 2.17527983 2516.916966 -1935.92713)"/><path d="M860.00447 804.31068c3.31742 4.20126-1.28281 24.05965 7.566 32.28655 3.02632 2.81363 8.34659 5.00314 11.90666 7.68727 3.56007-2.68413 8.85019-4.87364 11.87651-7.68727 8.84881-8.2269 4.24858-28.08529 7.56601-32.28655-12.2582-4.45369-26.66072-4.53148-38.91518 0z" style="fill:#eac102;fill-opacity:1;stroke:#eac102;stroke-width:3;stroke-linecap:butt;stroke-linejoin:miter;stroke-miterlimit:4;stroke-opacity:1;stroke-dasharray:none" transform="translate(-1621.849905 -1542.261518) scale(2.1937842)"/><path d="M889.82143 837.64053c.47369-.35508 1.12837-.65669 1.53125-1.03125 1.1061-1.02836 1.9912-2.2552 2.71875-3.59375.0154-.0283.016-.0654.0312-.0937v-29.875c-1.42979-.37578-2.81711-.86068-4.28125-1.125v35.71875zM881.32143 843.14053c1.39359-.89402 2.78271-1.79407 4.28125-2.65625v-38.96875h-4.28125v41.625zM868.57143 802.01553c-1.46179.27795-2.85548.76279-4.28125 1.15625v28.4375c.2019.45917.32661.97227.5625 1.40625.72755 1.33855 1.61265 2.56539 2.71875 3.59375.26482.2462.70277.4501 1 .6875v-35.28125zM872.79018 801.51553v38.625c.19498.11302.33477.2311.53125.34375 1.31016.75116 2.50459 1.54183 3.75 2.3125v-41.28125h-4.28125z" style="fill:#ed1c24;fill-opacity:1;stroke:none" transform="translate(-1621.849905 -1542.261518) scale(2.1937842)"/><path d="M860.00447 804.31068c3.31742 4.20126-1.28281 24.05965 7.566 32.28655 3.02632 2.81363 8.34659 5.00314 11.90666 7.68727 3.56007-2.68413 8.85019-4.87364 11.87651-7.68727 8.84881-8.2269 4.24858-28.08529 7.56601-32.28655-12.2582-4.45369-26.66072-4.53148-38.91518 0z" style="fill:none;stroke:#eac102;stroke-width:3;stroke-linecap:butt;stroke-linejoin:miter;stroke-miterlimit:4;stroke-opacity:1;stroke-dasharray:none" transform="translate(-1621.849905 -1542.261518) scale(2.1937842)"/><path d="M-442.95612 866.16742c-5.77228 0-10.62011 1.01704-15.08226 2.26223l16.86449 16.5905c5.41668.29133 10.02604 1.66201 15.63072 3.63356 6.24416 2.19576 13.87722 4.93601 23.58318 4.93601 9.70705 0 17.34032-2.74025 23.58318-4.93601 6.24416-2.19598 11.11853-3.83912 17.41338-3.83912 6.29353 0 11.1012 1.64314 17.34449 3.83912 6.2433 2.19576 13.87679 4.93601 23.58318 4.93601 9.7064 0 17.33989-2.74025 23.58318-4.93601 6.2433-2.19598 11.11876-3.83912 17.41317-3.83912 6.29418 0 11.16987 1.64314 17.41316 3.83912 6.24329 2.19576 13.87678 4.93601 23.58318 4.93601 9.7064 0 17.33989-2.74025 23.58318-4.93601 5.58077-1.96322 10.12015-3.3328 15.4936-3.63356l15.9736-16.86472c-4.23071-1.1072-8.85499-1.98801-14.1227-1.98801-9.70596 0-17.27123 2.74004-23.51452 4.93602-6.24329 2.19576-11.11876 3.83912-17.41316 3.83912-6.29419 0-11.16987-1.64336-17.41316-3.83912-6.24329-2.19598-13.87678-4.93602-23.58318-4.93602-9.7064 0-17.33989 2.74004-23.58318 4.93602-6.24329 2.19576-11.11876 3.83912-17.41317 3.83912-6.2944 0-11.10186-1.64336-17.34449-3.83912-6.24417-2.19598-13.87722-4.93602-23.58318-4.93602-9.70706 0-17.34033 2.74004-23.58318 4.93602-6.24417 2.19576-11.11854 3.83912-17.41338 3.83912-6.29353 0-11.17009-1.64336-17.41295-3.83912-6.24416-2.19598-13.87722-4.93602-23.58318-4.93602zm81.99269 33.66077c-9.70706 0-17.34033 2.74025-23.58318 4.93601-6.24417 2.19576-11.11854 3.90779-17.41338 3.90779-6.29353 0-11.17009-1.71203-17.41295-3.90779-.77616-.2729-1.78508-.53923-2.60533-.82267l23.30895 22.96607c8.04132-.55634 14.83393-2.6049 20.29251-4.52446 6.24416-2.19641 11.11853-3.90779 17.41338-3.90779 6.29353 0 11.1012 1.71116 17.34449 3.90779 6.2433 2.19576 13.87679 4.93602 23.58318 4.93602 9.7064 0 17.33989-2.74026 23.58318-4.93602 6.2433-2.19641 11.11876-3.90779 17.41317-3.90779 6.29418 0 11.16987 1.71116 17.41316 3.90779 6.09653 2.14377 13.58259 4.74318 22.96629 4.86735l22.41762-23.8574c-1.42837.47671-3.08227.91195-4.38757 1.37111-6.24329 2.19576-11.11876 3.90779-17.41316 3.90779-6.29419 0-11.16987-1.71203-17.41316-3.90779-6.24329-2.19597-13.87678-4.93601-23.58318-4.93601-9.7064 0-17.33989 2.74025-23.58318 4.93601-6.24329 2.19576-11.11876 3.90779-17.41317 3.90779-6.2944 0-11.10186-1.71203-17.34449-3.90779-6.24417-2.19597-13.87722-4.93601-23.58318-4.93601zm0 35.3061c-9.70706 0-17.34033 2.74026-23.58318 4.93602-.22267.079-.39795.12943-.61711.20621l15.0136 14.7396c2.93901-.75422 5.86705-1.23422 9.18669-1.23422 6.29353 0 11.1012 1.64336 17.34449 3.83912 6.2433 2.19642 13.87679 4.93601 23.58318 4.93601 9.7064 0 17.33989-2.73959 23.58318-4.93601 6.2433-2.19576 11.11876-3.83912 17.41317-3.83912 4.70939 0 8.7374 1.08504 13.02559 2.46801l14.19115-15.01361c-1.21119-.4008-2.3287-.70617-3.63356-1.16555-6.24329-2.19576-13.87678-4.93602-23.58318-4.93602-9.7064 0-17.33989 2.74026-23.58318 4.93602-6.24329 2.19641-11.11876 3.83912-17.41317 3.83912-6.2944 0-11.10186-1.64271-17.34449-3.83912-6.24417-2.19576-13.87722-4.93602-23.58318-4.93602z" style="font-size:medium;font-style:normal;font-variant:normal;font-weight:400;font-stretch:normal;text-indent:0;text-align:start;text-decoration:none;line-height:normal;letter-spacing:normal;word-spacing:normal;text-transform:none;direction:ltr;block-progression:tb;writing-mode:lr-tb;text-anchor:start;color:#000;fill:#fff;fill-opacity:1;stroke:none;stroke-width:8.5;marker:none;visibility:visible;display:inline;overflow:visible;enable-background:accumulate;font-family:Bitstream Vera Sans;-inkscape-font-specification:Bitstream Vera Sans" transform="translate(628.015548 -329.41676)"/></svg>