<?xml version="1.0" encoding="UTF-8"?>
<svg width="116px" height="26px" viewBox="0 0 116 26" version="1.1" xmlns="http://www.w3.org/2000/svg" xmlns:xlink="http://www.w3.org/1999/xlink">
    <title>Ferrovial</title>
    <defs></defs>
    <g id="Page-1" stroke="none" stroke-width="1" fill="none" fill-rule="evenodd">
        <g id="ferrovial_logo_white" fill="#FCC000" fill-rule="nonzero">
            <path d="M0.962638889,11.9526768 C0.274694444,11.9526768 0,11.6345821 0,10.9272505 L0,9.61889153 C0,9.05302628 0.274694444,8.66378949 0.962638889,8.66378949 L2.57777778,8.66378949 L2.57777778,7.67434302 C2.57777778,2.72383981 4.33066667,0 8.73061111,0 C10.4142222,0 11.4799722,0.10712189 11.8577778,0.459561085 C11.9947222,0.602662846 12.064,0.74249371 12.064,0.955102041 C11.9254444,2.75900196 11.9947222,3.28888734 11.3760556,3.28888734 C11.1698333,3.28888734 10.0364167,3.21856304 9.5555,3.21856304 C7.45783333,3.21856304 6.46216667,4.38545569 6.46216667,6.93184932 L6.46216667,8.66378949 L9.9325,8.66378949 C10.6204444,8.66378949 10.9297778,8.94753984 10.9297778,9.61889153 L10.9297778,11.0327369 C10.9297778,11.6345821 10.6204444,11.9526768 9.9325,11.9526768 L6.46216667,11.9526768 L6.46216667,24.0811644 C6.46216667,24.7541515 6.18747222,25.0714286 5.53416667,25.0714286 L3.50577778,25.0714286 C2.85247222,25.0714286 2.57777778,24.7541515 2.57777778,24.0811644 L2.57777778,11.9526768 L0.962638889,11.9526768 Z" id="Fill-1"></path>
            <path d="M11.7804032,16.7758104 C11.7804032,11.0969328 14.4467914,8.4799532 18.8160108,8.4799532 C23.4829716,8.4799532 25.4835443,11.2338308 25.4835443,16.1565859 C25.4835443,17.7396675 25.1826769,18.358892 24.1495687,18.358892 L15.6815198,18.358892 C15.6815198,20.630443 16.4817489,21.9723614 19.849119,21.9723614 C22.4154786,21.9723614 23.4173278,21.2854838 23.9166895,21.2854838 C24.3832293,21.2854838 24.9505792,23.0046675 24.9505792,23.3500961 C24.9505792,24.4166267 21.8489101,25.0716675 19.7483089,25.0716675 C13.7145506,25.0716675 11.7804032,22.3520144 11.7804032,16.7758104 Z M21.749663,15.1585042 C21.749663,12.8169124 20.7173362,11.6134838 18.8480512,11.6134838 C16.9139038,11.6134838 15.6815198,12.577341 15.6815198,15.5707899 L21.749663,15.5707899 L21.749663,15.1585042 Z" id="Fill-3"></path>
            <path d="M30.8406696,25.0714286 L28.7818996,25.0714286 C28.086104,25.0714286 27.84,24.7535671 27.84,24.0818906 L27.84,10.6540804 C27.84,10.6540804 30.42123,8.35714286 34.5379524,8.35714286 C36.1437604,8.35714286 37.12,8.49932255 37.12,9.09990921 C37.12,9.31154451 36.910689,10.4073087 36.8403736,10.8313964 C36.7700581,11.2898034 36.6670379,11.6795719 36.2116229,11.6795719 C35.8649515,11.6795719 35.5158273,11.5717114 34.713741,11.5717114 C32.8994396,11.5717114 31.7825692,12.3496141 31.7825692,12.3496141 L31.7825692,24.0818906 C31.7825692,24.7535671 31.504578,25.0714286 30.8406696,25.0714286" id="Fill-6"></path>
            <path d="M41.9774872,25.0714286 L39.9178996,25.0714286 C39.222104,25.0714286 38.976,24.7535671 38.976,24.0818906 L38.976,10.6540804 C38.976,10.6540804 41.55723,8.35714286 45.6739524,8.35714286 C47.2797604,8.35714286 48.256,8.49932255 48.256,9.09990921 C48.256,9.31154451 48.0475066,10.4073087 47.9771912,10.8313964 C47.9068758,11.2898034 47.8030379,11.6795719 47.3484405,11.6795719 C47.0017692,11.6795719 46.6518273,11.5717114 45.849741,11.5717114 C44.0362573,11.5717114 42.9193868,12.3496141 42.9193868,12.3496141 L42.9193868,24.0818906 C42.9193868,24.7535671 42.640578,25.0714286 41.9774872,25.0714286" id="Fill-8"></path>
            <path d="M56.608,8.35714286 C61.4780546,8.35714286 64.032,10.6456945 64.032,16.7150876 C64.032,22.782075 61.4780546,25.0714286 56.608,25.0714286 C51.7379454,25.0714286 49.184,22.782075 49.184,16.7150876 C49.184,10.6456945 51.7379454,8.35714286 56.608,8.35714286 M56.608,11.5125216 C53.9854173,11.5125216 53.1681548,12.7265606 53.1681548,16.7150876 C53.1681548,20.7364915 53.9854173,21.9505305 56.608,21.9505305 C59.2305827,21.9505305 60.0478452,20.7364915 60.0478452,16.7150876 C60.0478452,12.7265606 59.2305827,11.5125216 56.608,11.5125216" id="Fill-10"></path>
            <path d="M72.4872865,25.0714286 C71.9482632,25.0714286 71.6452106,24.9345446 71.3760935,24.2886724 L66.0900351,10.6136464 C66.0221639,10.4767624 65.888,10.1369125 65.888,9.89854551 C65.888,9.5579089 66.1239707,9.28571429 66.62748,9.28571429 L68.9856082,9.28571429 C69.7937485,9.28571429 69.9957836,9.66096524 70.1970294,10.2722231 L73.4303799,20.1734989 L76.7639588,10.2722231 C76.9999294,9.59330993 77.1672397,9.28571429 77.9067197,9.28571429 L80.063602,9.28571429 C80.5339649,9.28571429 80.736,9.66096524 80.736,9.86471786 C80.736,10.0676838 80.6018361,10.3752794 80.5339649,10.5444177 L75.1800353,24.2886724 C74.9448538,24.9007169 74.7767543,25.0714286 74.2045847,25.0714286 L72.4872865,25.0714286 Z" id="Fill-12"></path>
            <path d="M83.9843998,6.5556293 C82.6203054,6.5556293 81.664,5.50386249 81.664,4.20638608 C81.664,2.76780911 82.6203054,1.85714286 83.9843998,1.85714286 C85.1445997,1.85714286 86.304,2.87403999 86.304,4.20638608 C86.304,5.50386249 85.2125645,6.5556293 83.9843998,6.5556293 M82.9617288,8.80107441 L84.9726886,8.80107441 C85.6211532,8.80107441 85.8946118,9.15058212 85.8946118,9.81797155 L85.8946118,24.091023 C85.8946118,24.7559796 85.6211532,25.0714286 84.9726886,25.0714286 L82.9617288,25.0714286 C82.3124646,25.0714286 82.0398056,24.7559796 82.0398056,24.091023 L82.0398056,9.81797155 C82.0398056,9.15058212 82.3124646,8.80107441 82.9617288,8.80107441" id="Fill-14"></path>
            <path d="M105.591135,22.6089881 C105.658613,23.0259432 105.792,23.9264058 105.792,24.1004043 C105.792,24.5149539 105.391054,25.0714286 103.449878,25.0714286 C100.837058,25.0714286 100.403157,22.8864236 100.403157,22.8864236 C100.403157,22.8864236 98.8621429,25.0714286 95.3807371,25.0714286 C91.1288241,25.0714286 89.088,22.2625947 89.088,16.8878834 C89.088,11.1314978 91.4976005,8.35714286 96.4188033,8.35714286 C100.76958,8.35714286 103.114056,10.0907138 103.114056,10.0907138 L103.114056,20.4937429 C103.114056,21.465569 103.416139,21.985961 104.320033,21.985961 C104.520114,21.985961 104.92106,21.9490765 105.055232,21.9490765 C105.424793,21.9490765 105.523656,22.1230751 105.591135,22.6089881 Z M99.2976129,12.1017202 C99.2976129,12.1017202 98.2265921,11.5131721 96.4862816,11.5131721 C93.4733002,11.5131721 93.0033065,13.2820238 93.0033065,16.8878834 C93.0033065,19.7311962 93.4395611,21.9490765 96.0515962,21.9490765 C97.6914741,21.9490765 98.7624948,21.1865298 99.2976129,20.2171093 L99.2976129,12.1017202 Z" id="Fill-16"></path>
            <path d="M111.975733,18.6463148 C111.975733,20.775638 112.165288,21.9634403 114.101778,21.9634403 C114.558312,21.9634403 114.900046,21.9287187 115.089601,21.9287187 C115.507868,21.9287187 115.696534,21.9981619 115.773068,22.5569377 C115.773068,22.5569377 116,23.9894061 116,24.093571 C116,24.7920407 114.9748,25.0714286 113.190489,25.0714286 C108.2932,25.0714286 107.648,22.2428282 107.648,18.6463148 L107.648,1.81521374 C107.648,1.25724546 107.722754,0.941521006 108.520132,0.6984697 C111.065334,0 111.291376,0 111.444445,0 C111.860932,0 111.975733,0.138886461 111.975733,0.662133126 L111.975733,18.6463148 Z" id="Fill-18"></path>
        </g>
    </g>
</svg>
